<?xml version="1.0" encoding="utf-8"?>
<svg id="master-artboard" viewBox="0 0 720 503.999" version="1.1" xmlns="http://www.w3.org/2000/svg" x="0px" y="0px" enable-background="new 0 0 720 503.999" width="720px" height="503.9989929199219px" xmlns:xlink="http://www.w3.org/1999/xlink">

<path d="M 586.363007 260.43399 A 219.712006 219.712006 0 0 1 366.651001 480.145996 A 219.712006 219.712006 0 0 1 146.938995 260.43399 A 219.712006 219.712006 0 0 1 366.651001 40.721985 A 219.712006 219.712006 0 0 1 586.363007 260.43399 Z" fill="#B7CAC4" stroke="#000000" stroke-width="2" stroke-miterlimit="10" transform="matrix(1, 0, 0, 1, -2.842170943040401e-14, 0)"/>
<g id="XMLID_346_" transform="matrix(1, 0, 0, 1, -2.842170943040401e-14, 0)">
		<path fill="#FFFFFF" d="M210.416,230.21c0,4.677-3.827,8.504-8.504,8.504H57.254c-4.677,0-8.504-3.827-8.504-8.504V47.868&#10;&#9;&#9;&#9;c0-3.636,2.482-6.579,5.545-6.579H204.87c3.065,0,5.545,2.943,5.545,6.579V230.21z"/>
		<path fill="none" stroke="#000000" stroke-width="2" stroke-miterlimit="10" d="M210.416,230.21c0,4.677-3.827,8.504-8.504,8.504&#10;&#9;&#9;&#9;H57.254c-4.677,0-8.504-3.827-8.504-8.504V47.868c0-3.636,2.482-6.579,5.545-6.579H204.87c3.065,0,5.545,2.943,5.545,6.579V230.21&#10;&#9;&#9;&#9;z"/>
	</g><path fill="#FFFFFF" d="M193.873,210.252c0,4.677-3.827,8.504-8.504,8.504H73.598c-4.677,0-8.504-3.827-8.504-8.504V47.203&#10;&#9;&#9;&#9;c0-3.268,1.978-5.913,4.417-5.913h119.945c2.442,0,4.418,2.645,4.418,5.913V210.252z" transform="matrix(1, 0, 0, 1, -5.684341886080802e-14, 0)"/><path fill="none" stroke="#000000" stroke-width="2" stroke-miterlimit="10" d="M193.873,210.252c0,4.677-3.827,8.504-8.504,8.504&#10;&#9;&#9;&#9;H73.598c-4.677,0-8.504-3.827-8.504-8.504V47.203c0-3.268,1.978-5.913,4.417-5.913h119.945c2.442,0,4.418,2.645,4.418,5.913&#10;&#9;&#9;&#9;V210.252z" transform="matrix(1, 0, 0, 1, -5.684341886080802e-14, 0)"/><path id="XMLID_345_" fill="#FFFFFF" stroke="#000000" stroke-width="2" stroke-miterlimit="10" d="M210.416,51.571V39.956&#10;&#9;&#9;c0-3.101-2.518-5.618-5.619-5.618H53.814c-3.099,0-5.618,2.517-5.618,5.618v11.615H210.416z" transform="matrix(1, 0, 0, 1, -2.842170943040401e-14, 0)"/><path id="XMLID_344_" fill="#FF617B" stroke="#000000" stroke-width="2" stroke-miterlimit="10" d="M65.094,42.854&#10;&#9;&#9;c0,1.915-1.569,3.469-3.472,3.469c-1.922,0-3.488-1.554-3.488-3.469c0-1.929,1.566-3.473,3.488-3.473&#10;&#9;&#9;C63.525,39.381,65.094,40.925,65.094,42.854z" transform="matrix(1, 0, 0, 1, -2.842170943040401e-14, 0)"/><path id="XMLID_343_" fill="#FBD451" stroke="#000000" stroke-width="2" stroke-miterlimit="10" d="M76.16,42.854&#10;&#9;&#9;c0,1.915-1.569,3.469-3.472,3.469c-1.922,0-3.488-1.554-3.488-3.469c0-1.929,1.566-3.473,3.488-3.473&#10;&#9;&#9;C74.59,39.381,76.16,40.925,76.16,42.854z" transform="matrix(1, 0, 0, 1, -2.842170943040401e-14, 0)"/><path id="XMLID_342_" fill="#5FD4AF" stroke="#000000" stroke-width="2" stroke-miterlimit="10" d="M87.225,42.854&#10;&#9;&#9;c0,1.915-1.569,3.469-3.473,3.469c-1.922,0-3.488-1.554-3.488-3.469c0-1.929,1.566-3.473,3.488-3.473&#10;&#9;&#9;C85.656,39.381,87.225,40.925,87.225,42.854z" transform="matrix(1, 0, 0, 1, -2.842170943040401e-14, 0)"/><path d="M 75.505997 76.677002 H 86.030996 V 85.973001 H 75.505997 V 76.677002 Z" fill="#FF617B" stroke="#000000" stroke-width="2" stroke-miterlimit="10" transform="matrix(1, 0, 0, 1, -2.842170943040401e-14, 0)"/><path d="M 75.505997 97.663002 H 86.030996 V 106.957002 H 75.505997 V 97.663002 Z" fill="#FBD451" stroke="#000000" stroke-width="2" stroke-miterlimit="10" transform="matrix(1, 0, 0, 1, -2.842170943040401e-14, 0)"/><path d="M 75.505997 118.712997 H 86.030996 V 128.008997 H 75.505997 V 118.712997 Z" fill="#5FD4AF" stroke="#000000" stroke-width="2" stroke-miterlimit="10" transform="matrix(1, 0, 0, 1, -2.842170943040401e-14, 0)"/><path d="M 93.414001 76.677002 H 166.486 V 85.973001 H 93.414001 V 76.677002 Z" fill="#B7CAC4" stroke="#000000" stroke-width="2" stroke-miterlimit="10" transform="matrix(1, 0, 0, 1, -5.684341886080802e-14, 0)"/><path d="M 93.414001 97.663002 H 156.901001 V 106.957002 H 93.414001 V 97.663002 Z" fill="#B7CAC4" stroke="#000000" stroke-width="2" stroke-miterlimit="10" transform="matrix(1, 0, 0, 1, -5.684341886080802e-14, 0)"/><path d="M 93.414001 118.712997 H 124.365002 V 128.008997 H 93.414001 V 118.712997 Z" fill="#B7CAC4" stroke="#000000" stroke-width="2" stroke-miterlimit="10" transform="matrix(1, 0, 0, 1, -5.684341886080802e-14, 0)"/><path d="M 75.505997 182.039001 H 148.576996 V 191.335001 H 75.505997 V 182.039001 Z" fill="#B7CAC4" stroke="#000000" stroke-width="2" stroke-miterlimit="10" transform="matrix(1, 0, 0, 1, -5.684341886080802e-14, 0)"/><path d="M 75.505997 143.738007 H 184.674995 V 172.217007 H 75.505997 V 143.738007 Z" fill="#B7CAC4" stroke="#000000" stroke-width="2" stroke-miterlimit="10" transform="matrix(1, 0, 0, 1, -2.842170943040401e-14, 0)"/>
<g id="XMLID_1150_" transform="matrix(1, 0, 0, 1, -2.842170943040401e-14, 0)">
		<g id="XMLID_1151_">
			<path fill="#FFFFFF" stroke="#000000" stroke-width="2" stroke-miterlimit="10" d="M203.333,384.712&#10;&#9;&#9;&#9;&#9;c4.211-10.236,7.083-21.267,7.083-33.058c0-44.784-36.312-81.108-81.102-81.108c-44.806,0-81.118,36.324-81.118,81.108&#10;&#9;&#9;&#9;&#9;c0,44.81,36.312,81.119,81.118,81.119c15.807,0,30.531-4.602,43.006-12.427C172.32,420.346,195.153,404.598,203.333,384.712z"/>
			<path fill="#FFFFFF" stroke="#000000" stroke-width="2" stroke-miterlimit="10" d="M151.766,348.531&#10;&#9;&#9;&#9;&#9;c1.281-2.403,1.996-4.529,2.428-7.216l5.677-2.82l-0.674-12.047l-5.947-2.001c-0.701-2.127-2.253-4.54-3.38-6.812l2-5.945&#10;&#9;&#9;&#9;&#9;l-9.188-7.82l-5.677,2.817c-2.403-1.284-4.529-1.999-7.219-2.429l-2.818-5.676l-12.046,0.674l-2,5.946&#10;&#9;&#9;&#9;&#9;c-2.128,0.702-4.541,2.255-6.812,3.382l-5.947-2.001l-7.818,9.188l2.817,5.677c-1.281,2.403-1.996,4.527-2.429,7.217&#10;&#9;&#9;&#9;&#9;l-5.675,2.818l0.673,12.046l5.947,2c0.7,2.128,2.253,4.54,3.38,6.812l-2,5.946l9.188,7.82l5.677-2.819&#10;&#9;&#9;&#9;&#9;c2.403,1.281,4.529,1.997,7.219,2.43l2.818,5.676l12.046-0.674l2-5.946c2.128-0.702,4.541-2.255,6.812-3.382l5.947,2.001&#10;&#9;&#9;&#9;&#9;l7.82-9.188L151.766,348.531z M114.789,346.018c-6.22-5.404-6.901-14.614-1.643-20.411c5.402-6.216,14.614-6.899,20.412-1.641&#10;&#9;&#9;&#9;&#9;c6.217,5.402,6.901,14.613,1.641,20.41C129.798,350.596,120.582,351.277,114.789,346.018z"/>
			<path fill="#FFFFFF" stroke="#000000" stroke-width="2" stroke-miterlimit="10" d="M169.344,391.801&#10;&#9;&#9;&#9;&#9;c0.276-1.658,0.276-3.041,0-4.697l2.764-2.765l-2.764-6.91h-3.87c-0.829-1.106-2.211-2.211-3.318-3.317v-3.869l-6.91-2.764&#10;&#9;&#9;&#9;&#9;l-2.764,2.764c-1.657-0.278-3.042-0.278-4.699,0l-2.764-2.764l-6.91,2.764v3.869c-1.106,0.829-2.211,2.211-3.317,3.317h-3.87&#10;&#9;&#9;&#9;&#9;l-2.763,6.91l2.763,2.765c-0.277,1.656-0.277,3.039,0,4.697l-2.763,2.764l2.763,6.909h3.87c0.83,1.107,2.211,2.211,3.317,3.318&#10;&#9;&#9;&#9;&#9;v3.87l6.91,2.764l2.764-2.764c1.658,0.276,3.042,0.276,4.699,0l2.764,2.764l6.91-2.764v-3.87c1.107-0.83,2.212-2.211,3.318-3.318&#10;&#9;&#9;&#9;&#9;h3.87l2.764-6.909L169.344,391.801z"/>
			<path d="M 138.721998 334.98999 A 14.677 14.677 0 0 1 124.044998 349.66699 A 14.677 14.677 0 0 1 109.367998 334.98999 A 14.677 14.677 0 0 1 124.044998 320.31299 A 14.677 14.677 0 0 1 138.721998 334.98999 Z" fill="#1FB5D8" stroke="#000000" stroke-width="2" stroke-miterlimit="10"/>
			<path d="M 159.871996 389.451996 A 9.157 9.157 0 0 1 150.714996 398.608995 A 9.157 9.157 0 0 1 141.557997 389.451996 A 9.157 9.157 0 0 1 150.714996 380.294996 A 9.157 9.157 0 0 1 159.871996 389.451996 Z" fill="#1FB5D8" stroke="#000000" stroke-width="2" stroke-miterlimit="10"/>
		</g>
	</g><path fill="#DADADA" stroke="#000000" stroke-width="2" stroke-miterlimit="10" d="M115.187,391.337&#10;&#9;&#9;c-0.595-3.379-1.744-6.521-3.301-9.377l-14.374,20.297l-10.754,0.959l-8.857-6.178l-2.815-10.423l14.403-20.351&#10;&#9;&#9;c-3.219-0.487-6.557-0.498-9.942,0.099c-16.733,2.942-27.918,18.9-24.972,35.639c0.917,5.208,3.094,9.87,6.159,13.746&#10;&#9;&#9;c0,0-45.815,51.241-46.56,52.297c-2.259,3.226-3.286,7.31-2.55,11.497c1.474,8.369,9.445,13.957,17.816,12.483&#10;&#9;&#9;c5.553-0.977,8.665-4.758,11.727-9.743l34.024-56.405c4.688,1.559,9.815,2.016,15.022,1.098&#10;&#9;&#9;C106.954,424.03,118.133,408.071,115.187,391.337z M27.898,480.202c-2.791,0.493-5.448-1.377-5.94-4.165&#10;&#9;&#9;c-0.49-2.788,1.371-5.443,4.162-5.936c2.787-0.491,5.451,1.37,5.941,4.158C32.551,477.048,30.685,479.711,27.898,480.202z" transform="matrix(1, 0, 0, 1, -2.842170943040401e-14, 0)"/>
<g transform="matrix(1, 0, 0, 1, -2.842170943040401e-14, 0)">
		<path fill-rule="evenodd" clip-rule="evenodd" fill="#FFFFFF" stroke="#000000" stroke-width="2" stroke-miterlimit="10" d="&#10;&#9;&#9;&#9;M309.681,412.867c-0.076,0.417-0.12,0.845-0.12,1.285v66.282c0,4.067,3.297,7.365,7.365,7.365h95.741&#10;&#9;&#9;&#9;c4.067,0,7.365-3.298,7.365-7.365v-66.282c0-0.439-0.044-0.867-0.12-1.285H309.681z"/>
		<g>
			<g>
				<defs>
					<path d="M 309.561005 412.312012 H 420.031006 V 469.385014 H 309.561005 V 412.312012 Z" id="SVGID_1_"/>
				</defs>
				<use overflow="visible" fill="#FFFFFF" xlink:href="#SVGID_1_"/>
				<clipPath id="SVGID_2_">
					<use overflow="visible" xlink:href="#SVGID_1_"/>
				</clipPath>
				
					<path d="M 310.22698974609375 412.86700439453125 L 364.7980041503906 458.3420104980469 L 419.364990234375 412.86700439453125 Z" clip-path="url(#SVGID_2_)" fill-rule="evenodd" clip-rule="evenodd" fill="#F74864" stroke="#000000" stroke-width="2" stroke-miterlimit="10"/>
				<use overflow="visible" fill="none" stroke="#000000" stroke-width="2" stroke-miterlimit="10" xlink:href="#SVGID_1_"/>
			</g>
		</g>
	</g>
<g transform="matrix(1, 0, 0, 1, -2.842170943040401e-14, 0)">
		<g id="XMLID_338_">
			<path fill="#FFFFFF" d="M659.472,443.878c0,4.677-3.827,8.504-8.504,8.504H508.481c-4.677,0-8.504-3.827-8.504-8.504V294.314&#10;&#9;&#9;&#9;&#9;c0-3.01,2.055-5.449,4.592-5.449h150.311c2.539,0,4.593,2.438,4.593,5.449V443.878z"/>
			<path fill="none" stroke="#000000" stroke-width="2" stroke-miterlimit="10" d="M659.472,443.878&#10;&#9;&#9;&#9;&#9;c0,4.677-3.827,8.504-8.504,8.504H508.481c-4.677,0-8.504-3.827-8.504-8.504V294.314c0-3.01,2.055-5.449,4.592-5.449h150.311&#10;&#9;&#9;&#9;&#9;c2.539,0,4.593,2.438,4.593,5.449V443.878z"/>
		</g>
		<path id="XMLID_337_" fill="#FFFFFF" stroke="#000000" stroke-width="2" stroke-miterlimit="10" d="M659.472,297.381v-9.62&#10;&#9;&#9;&#9;c0-2.568-2.086-4.654-4.654-4.654H504.17c-2.568,0-4.653,2.085-4.653,4.654v9.62H659.472z"/>
		<path id="XMLID_336_" fill="#FF617B" stroke="#000000" stroke-width="2" stroke-miterlimit="10" d="M513.513,290.162&#10;&#9;&#9;&#9;c0,1.586-1.3,2.873-2.877,2.873c-1.591,0-2.889-1.287-2.889-2.873c0-1.598,1.297-2.877,2.889-2.877&#10;&#9;&#9;&#9;C512.213,287.285,513.513,288.564,513.513,290.162z"/>
		<path id="XMLID_335_" fill="#FBD451" stroke="#000000" stroke-width="2" stroke-miterlimit="10" d="M522.678,290.162&#10;&#9;&#9;&#9;c0,1.586-1.3,2.873-2.877,2.873c-1.591,0-2.889-1.287-2.889-2.873c0-1.598,1.297-2.877,2.889-2.877&#10;&#9;&#9;&#9;C521.378,287.285,522.678,288.564,522.678,290.162z"/>
		<path id="XMLID_334_" fill="#5FD4AF" stroke="#000000" stroke-width="2" stroke-miterlimit="10" d="M531.843,290.162&#10;&#9;&#9;&#9;c0,1.586-1.3,2.873-2.877,2.873c-1.591,0-2.889-1.287-2.889-2.873c0-1.598,1.297-2.877,2.889-2.877&#10;&#9;&#9;&#9;C530.543,287.285,531.843,288.564,531.843,290.162z"/>
		<g id="XMLID_88_">
			<path fill="#F1F2F2" d="M655.793,290.245c0,1.126-1.276,2.047-2.835,2.047h-107.88c-1.559,0-2.835-0.921-2.835-2.047&#10;&#9;&#9;&#9;&#9;c0-1.126,1.276-2.047,2.835-2.047h107.88C654.518,288.198,655.793,289.119,655.793,290.245z"/>
			<path fill="none" stroke="#000000" stroke-width="2" stroke-miterlimit="10" d="M655.793,290.245&#10;&#9;&#9;&#9;&#9;c0,1.126-1.276,2.047-2.835,2.047h-107.88c-1.559,0-2.835-0.921-2.835-2.047c0-1.126,1.276-2.047,2.835-2.047h107.88&#10;&#9;&#9;&#9;&#9;C654.518,288.198,655.793,289.119,655.793,290.245z"/>
		</g>
		<path fill-rule="evenodd" clip-rule="evenodd" fill="#FFFFFF" stroke="#000000" stroke-width="2" stroke-miterlimit="10" d="&#10;&#9;&#9;&#9;M642.018,318.45h-63.361c-2.692,0-4.873,2.182-4.873,4.874v63.361c0,2.692,2.182,4.875,4.873,4.875h63.361&#10;&#9;&#9;&#9;c2.692,0,4.874-2.183,4.874-4.875v-63.361C646.892,320.632,644.71,318.45,642.018,318.45"/>
		
			<path d="M 578.656982 323.322998 H 642.017982 V 372.060997 H 578.656982 V 323.322998 Z" fill-rule="evenodd" clip-rule="evenodd" fill="#FFFFFF" stroke="#000000" stroke-width="2" stroke-miterlimit="10"/>
		<path fill-rule="evenodd" clip-rule="evenodd" fill="#F74864" stroke="#000000" stroke-width="2" stroke-miterlimit="10" d="&#10;&#9;&#9;&#9;M622.773,347.577l-8.524,6.806c-3.115,2.487-7.674,1.884-10.035-1.327l0,0c-2.547-3.463-7.579-3.845-10.619-0.805l-14.938,14.937&#10;&#9;&#9;&#9;v4.873h63.361v-9.747l-9.078-13.224C630.633,345.729,625.958,345.034,622.773,347.577z"/>
		<path fill-rule="evenodd" clip-rule="evenodd" fill="#FBD451" stroke="#000000" stroke-width="2" stroke-miterlimit="10" d="&#10;&#9;&#9;&#9;M608.177,332.635c-3.942,0-7.141,3.199-7.141,7.141s3.198,7.142,7.141,7.142c3.944,0,7.143-3.2,7.143-7.142&#10;&#9;&#9;&#9;S612.121,332.635,608.177,332.635"/>
	</g><g transform="matrix(1, 0, 0, 1, -5.684341886080802e-14, 0)">
			<path fill="#FFFFFF" stroke="#000000" stroke-width="2" stroke-miterlimit="10" d="M522.594,405.578&#10;&#9;&#9;&#9;&#9;c0,2.106,1.707,3.812,3.812,3.812h106.635c2.105,0,3.812-1.706,3.812-3.812l0,0c0-2.107-1.707-3.812-3.812-3.812H526.407&#10;&#9;&#9;&#9;&#9;C524.301,401.765,522.594,403.471,522.594,405.578L522.594,405.578z"/>
		</g><path fill="#FFFFFF" stroke="#000000" stroke-width="2" stroke-miterlimit="10" d="M522.594,420.83&#10;&#9;&#9;&#9;&#9;c0,2.104,1.707,3.812,3.812,3.812h106.635c2.105,0,3.812-1.708,3.812-3.812l0,0c0-2.105-1.707-3.814-3.812-3.814H526.407&#10;&#9;&#9;&#9;&#9;C524.301,417.015,522.594,418.724,522.594,420.83L522.594,420.83z" transform="matrix(1, 0, 0, 1, -8.526512829121202e-14, 0)"/><path fill="#FFFFFF" stroke="#000000" stroke-width="2" stroke-miterlimit="10" d="M522.594,436.08&#10;&#9;&#9;&#9;&#9;c0,2.104,1.707,3.812,3.812,3.812h78.803c2.105,0,3.812-1.709,3.812-3.812l0,0c0-2.105-1.707-3.812-3.812-3.812h-78.803&#10;&#9;&#9;&#9;&#9;C524.301,432.267,522.594,433.974,522.594,436.08L522.594,436.08z" transform="matrix(1, 0, 0, 1, -8.526512829121202e-14, 0)"/><path fill="#FFFFFF" stroke="#000000" stroke-width="2" stroke-miterlimit="10" d="M530.941,380.357&#10;&#9;&#9;c0-4.814-3.901-8.716-8.714-8.716h24.243c4.812,0,8.715,3.902,8.715,8.716c0,2.405-0.976,4.584-2.553,6.161&#10;&#9;&#9;c-1.578,1.576-3.756,2.553-6.162,2.553h-24.243C527.04,389.071,530.941,385.168,530.941,380.357z" transform="matrix(1, 0, 0, 1, -2.842170943040401e-14, 0)"/><path fill="#FBD451" stroke="#000000" stroke-width="2" stroke-miterlimit="10" d="M522.227,389.071&#10;&#9;&#9;c-4.813,0-8.714-3.903-8.714-8.714c0-2.408,0.974-4.587,2.552-6.164c1.576-1.577,3.757-2.552,6.162-2.552&#10;&#9;&#9;c4.813,0,8.714,3.902,8.714,8.716C530.941,385.168,527.04,389.071,522.227,389.071z" transform="matrix(1, 0, 0, 1, -2.842170943040401e-14, 0)"/><path fill="#5FD4AF" stroke="#000000" stroke-width="2" stroke-miterlimit="10" d="M546.47,338.366&#10;&#9;&#9;c-4.812,0-8.716-3.901-8.716-8.713c0-4.814,3.903-8.715,8.716-8.715c4.812,0,8.715,3.901,8.715,8.715&#10;&#9;&#9;c0,2.407-0.976,4.585-2.553,6.161C551.054,337.391,548.876,338.366,546.47,338.366z" transform="matrix(1, 0, 0, 1, -2.842170943040401e-14, 0)"/><path fill="#FF617B" stroke="#000000" stroke-width="2" stroke-miterlimit="10" d="M546.47,363.718&#10;&#9;&#9;c-4.812,0-8.716-3.901-8.716-8.713c0-4.814,3.903-8.715,8.716-8.715c4.812,0,8.715,3.901,8.715,8.715&#10;&#9;&#9;c0,2.405-0.976,4.585-2.553,6.162C551.054,362.744,548.876,363.718,546.47,363.718z" transform="matrix(1, 0, 0, 1, -2.842170943040401e-14, 0)"/><path fill="#FFFFFF" stroke="#000000" stroke-width="2" stroke-miterlimit="10" d="M522.227,338.366&#10;&#9;&#9;c-4.813,0-8.714-3.901-8.714-8.713c0-2.409,0.974-4.586,2.552-6.162c1.576-1.577,3.757-2.553,6.162-2.553h24.243&#10;&#9;&#9;c-4.812,0-8.716,3.901-8.716,8.715c0,4.812,3.903,8.713,8.716,8.713H522.227z" transform="matrix(1, 0, 0, 1, -2.842170943040401e-14, 0)"/><path fill="#FFFFFF" stroke="#000000" stroke-width="2" stroke-miterlimit="10" d="M522.227,363.718&#10;&#9;&#9;c-4.813,0-8.714-3.901-8.714-8.713c0-2.406,0.974-4.586,2.552-6.162c1.576-1.579,3.757-2.553,6.162-2.553h24.243&#10;&#9;&#9;c-4.812,0-8.716,3.901-8.716,8.715c0,4.812,3.903,8.713,8.716,8.713H522.227z" transform="matrix(1, 0, 0, 1, -2.842170943040401e-14, 0)"/>
<g transform="matrix(1, 0, 0, 1, -2.842170943040401e-14, 0)">
		<path fill="#FFFFFF" stroke="#000000" stroke-width="2" stroke-miterlimit="10" d="M492.059,196.477h79.569&#10;&#9;&#9;&#9;c5.793,0,10.492,4.696,10.492,10.492v46.342c0,5.793-4.699,10.492-10.492,10.492h-52.812l-9.998,14.121&#10;&#9;&#9;&#9;c-0.822,0.824-2.156,0.824-2.979,0l-9.996-14.121h-3.783c-5.794,0-10.492-4.699-10.492-10.492v-46.342&#10;&#9;&#9;&#9;C481.566,201.174,486.265,196.477,492.059,196.477z"/>
		<g>
			<g>
				<path fill="#B7CAC4" stroke="#000000" stroke-width="2" stroke-miterlimit="10" d="M496.883,214.307&#10;&#9;&#9;&#9;&#9;&#9;c0,2.106,1.707,3.812,3.812,3.812h62.528c2.105,0,3.812-1.706,3.812-3.812l0,0c0-2.107-1.707-3.812-3.812-3.812h-62.528&#10;&#9;&#9;&#9;&#9;&#9;C498.59,210.495,496.883,212.201,496.883,214.307L496.883,214.307z"/>
			</g>
			<g>
				<path fill="#B7CAC4" stroke="#000000" stroke-width="2" stroke-miterlimit="10" d="M496.883,229.559&#10;&#9;&#9;&#9;&#9;&#9;c0,2.105,1.707,3.812,3.812,3.812h62.528c2.105,0,3.812-1.708,3.812-3.812l0,0c0-2.105-1.707-3.814-3.812-3.814h-62.528&#10;&#9;&#9;&#9;&#9;&#9;C498.59,225.745,496.883,227.454,496.883,229.559L496.883,229.559z"/>
			</g>
			<g>
				<path fill="#B7CAC4" stroke="#000000" stroke-width="2" stroke-miterlimit="10" d="M496.883,244.809&#10;&#9;&#9;&#9;&#9;&#9;c0,2.104,1.707,3.812,3.812,3.812h34.696c2.105,0,3.812-1.709,3.812-3.812l0,0c0-2.105-1.707-3.812-3.812-3.812h-34.696&#10;&#9;&#9;&#9;&#9;&#9;C498.59,240.997,496.883,242.704,496.883,244.809L496.883,244.809z"/>
			</g>
		</g>
	</g>
<g transform="matrix(1, 0, 0, 1, -2.842170943040401e-14, 0)">
		<path fill="#FFFFFF" stroke="#000000" stroke-width="2" stroke-miterlimit="10" d="M506.863,55.237v98.51&#10;&#9;&#9;&#9;c0,3.528,2.888,6.416,6.418,6.416h141.188c3.529,0,6.418-2.888,6.418-6.416v-98.51H506.863z"/>
		
			<path d="M 518.093994 66.468002 H 649.655991 V 131.606003 H 518.093994 V 66.468002 Z" fill="#FFFFFF" stroke="#000000" stroke-width="2" stroke-miterlimit="10"/>
		<g>
			<g>
				<g>
					<path d="M 609.934 99.036003 A 26.059 26.059 0 0 1 583.875 125.095003 A 26.059 26.059 0 0 1 557.816 99.036003 A 26.059 26.059 0 0 1 583.875 72.977003 A 26.059 26.059 0 0 1 609.934 99.036003 Z" fill="#B7CAC4" stroke="#000000" stroke-width="2" stroke-miterlimit="10"/>
				</g>
			</g>
		</g>
		<path d="M 583.3809814453125 80.88999938964844 L 590.2990112304688 89.29900360107422 L 600.4329833984375 93.27899932861328 L 594.572998046875 102.45500183105469 L 593.9199829101562 113.3239974975586 L 583.3809814453125 110.58599853515625 L 572.8419799804688 113.3239974975586 L 572.1890258789062 102.45500183105469 L 566.3280029296875 93.27899932861328 L 576.4639892578125 89.29900360107422 Z" fill="#FBD451" stroke="#000000" stroke-width="2" stroke-miterlimit="10"/>
		<path fill="#CDD6E0" stroke="#000000" stroke-width="2" stroke-miterlimit="10" d="M521.302,142.516h125.146&#10;&#9;&#9;&#9;c1.772,0,3.208,1.436,3.208,3.208l0,0c0,1.772-1.436,3.208-3.208,3.208H521.302c-1.772,0-3.208-1.436-3.208-3.208l0,0&#10;&#9;&#9;&#9;C518.094,143.952,519.53,142.516,521.302,142.516z"/>
		<path id="XMLID_83_" fill="#FFFFFF" stroke="#000000" stroke-width="2" stroke-miterlimit="10" d="M660.886,55.237v-13.86&#10;&#9;&#9;&#9;c0-3.7-3.005-6.704-6.706-6.704H513.566c-3.698,0-6.703,3.004-6.703,6.704v13.86H660.886z"/>
		<path id="XMLID_82_" fill="#FF617B" stroke="#000000" stroke-width="2" stroke-miterlimit="10" d="M527.027,44.836&#10;&#9;&#9;&#9;c0,2.285-1.872,4.139-4.144,4.139c-2.293,0-4.161-1.854-4.161-4.139c0-2.302,1.868-4.145,4.161-4.145&#10;&#9;&#9;&#9;C525.155,40.69,527.027,42.534,527.027,44.836z"/>
		<path id="XMLID_81_" fill="#FBD451" stroke="#000000" stroke-width="2" stroke-miterlimit="10" d="M540.231,44.836&#10;&#9;&#9;&#9;c0,2.285-1.872,4.139-4.143,4.139c-2.294,0-4.162-1.854-4.162-4.139c0-2.302,1.868-4.145,4.162-4.145&#10;&#9;&#9;&#9;C538.359,40.69,540.231,42.534,540.231,44.836z"/>
		<path id="XMLID_80_" fill="#5FD4AF" stroke="#000000" stroke-width="2" stroke-miterlimit="10" d="M553.435,44.836&#10;&#9;&#9;&#9;c0,2.285-1.872,4.139-4.143,4.139c-2.294,0-4.162-1.854-4.162-4.139c0-2.302,1.868-4.145,4.162-4.145&#10;&#9;&#9;&#9;C551.563,40.69,553.435,42.534,553.435,44.836z"/>
		<g id="XMLID_78_">
			<path fill="#F1F2F2" d="M649.984,45.195c0,1.559-1.276,2.835-2.835,2.835h-75.77c-1.559,0-2.835-1.276-2.835-2.835v-0.23&#10;&#9;&#9;&#9;&#9;c0-1.559,1.276-2.835,2.835-2.835h75.77c1.559,0,2.835,1.276,2.835,2.835V45.195z"/>
			<path fill="none" stroke="#000000" stroke-width="2" stroke-miterlimit="10" d="M649.984,45.195c0,1.559-1.276,2.835-2.835,2.835&#10;&#9;&#9;&#9;&#9;h-75.77c-1.559,0-2.835-1.276-2.835-2.835v-0.23c0-1.559,1.276-2.835,2.835-2.835h75.77c1.559,0,2.835,1.276,2.835,2.835V45.195z&#10;&#9;&#9;&#9;&#9;"/>
		</g>
		<path d="M 580.439976 145.524002 A 6.702 6.702 0 0 1 573.737976 152.226002 A 6.702 6.702 0 0 1 567.035976 145.524002 A 6.702 6.702 0 0 1 573.737976 138.822002 A 6.702 6.702 0 0 1 580.439976 145.524002 Z" fill="#1A2E2D" stroke="#000000" stroke-width="2" stroke-miterlimit="10"/>
	</g>
<g transform="matrix(1, 0, 0, 1, -2.842170943040401e-14, 0)">
		<g id="XMLID_10496_">
			<g id="XMLID_10497_">
				<g id="XMLID_10504_">
					<g id="XMLID_10505_">
						<path id="XMLID_12901_" fill="#453F4F" stroke="#000000" stroke-width="2" stroke-miterlimit="10" d="M467.124,244.925&#10;&#9;&#9;&#9;&#9;&#9;&#9;&#9;c0,2.461-1.922,4.541-4.384,4.547H266.988c-2.46,0-4.52-1.898-4.52-4.361V114.196c0-2.458,1.923-4.543,4.383-4.545h195.75&#10;&#9;&#9;&#9;&#9;&#9;&#9;&#9;c2.458,0,4.522,1.902,4.522,4.361V244.925z"/>
					</g>
				</g>
				<g id="XMLID_10502_">
					<g id="XMLID_10503_">
						<path id="XMLID_12900_" fill="#FFFFFF" stroke="#000000" stroke-width="2" stroke-miterlimit="10" d="M467.124,385.057&#10;&#9;&#9;&#9;&#9;&#9;&#9;&#9;c0,2.463-1.922,4.54-4.384,4.552H266.988c-2.46,0-4.52-1.904-4.52-4.368V254.329c0-2.456,1.923-4.543,4.383-4.546h195.75&#10;&#9;&#9;&#9;&#9;&#9;&#9;&#9;c2.458,0,4.522,1.901,4.522,4.362V385.057z"/>
					</g>
				</g>
				<g id="XMLID_10501_">
					<path d="M 266.3210144042969 235.10800170898438 L 463.385009765625 234.9600067138672 L 463.26800537109375 114.06900024414062 L 266.2070007324219 114.06900024414062 Z" id="XMLID_12899_" fill="#FFFFFF" stroke="#000000" stroke-width="2" stroke-miterlimit="10"/>
				</g>
				<g id="XMLID_10499_">
					
						<path d="M 282.355011 244.613998 H 296.415011 V 253.504998 H 282.355011 V 244.613998 Z" id="XMLID_12897_" fill="#FFFFFF" stroke="#000000" stroke-width="2" stroke-miterlimit="10"/>
				</g>
				<g id="XMLID_10498_">
					
						<path d="M 433.891998 244.613998 H 447.949998 V 253.504998 H 433.891998 V 244.613998 Z" id="XMLID_12896_" fill="#FFFFFF" stroke="#000000" stroke-width="2" stroke-miterlimit="10"/>
				</g>
			</g>
		</g>
		<g id="XMLID_10495_">
			<path id="XMLID_12651_" fill="#DEDFE0" stroke="#000000" stroke-width="2" stroke-miterlimit="10" d="M452.213,323.548&#10;&#9;&#9;&#9;&#9;c0,4.114-3.338,7.447-7.449,7.447H284.861c-4.117,0-7.449-3.333-7.449-7.447v-55.662c0-4.115,3.332-7.452,7.449-7.452h159.904&#10;&#9;&#9;&#9;&#9;c4.11,0,7.449,3.337,7.449,7.452V323.548z"/>
		</g>
		<g>
			<g id="XMLID_10494_">
				<path id="XMLID_12895_" fill="#FFFFFF" stroke="#000000" stroke-width="2" stroke-miterlimit="10" d="M285.615,275.529h10.233&#10;&#9;&#9;&#9;&#9;&#9;c0.465,0,0.845-0.392,0.845-0.882v-5.094c0-0.485-0.38-0.879-0.845-0.879h-10.233c-0.466,0-0.845,0.394-0.845,0.879v5.094&#10;&#9;&#9;&#9;&#9;&#9;C284.77,275.137,285.149,275.529,285.615,275.529z"/>
			</g>
			<g id="XMLID_64_">
				<path id="XMLID_76_" fill="#FFFFFF" stroke="#000000" stroke-width="2" stroke-miterlimit="10" d="M301.987,275.529h10.232&#10;&#9;&#9;&#9;&#9;&#9;c0.465,0,0.846-0.392,0.846-0.882v-5.094c0-0.485-0.38-0.879-0.846-0.879h-10.232c-0.466,0-0.845,0.394-0.845,0.879v5.094&#10;&#9;&#9;&#9;&#9;&#9;C301.142,275.137,301.521,275.529,301.987,275.529z"/>
			</g>
			<g id="XMLID_10493_">
				<path id="XMLID_12894_" fill="#FFFFFF" stroke="#000000" stroke-width="2" stroke-miterlimit="10" d="M318.057,275.529h10.236&#10;&#9;&#9;&#9;&#9;&#9;c0.465,0,0.842-0.392,0.842-0.882v-5.094c0-0.485-0.377-0.879-0.842-0.879h-10.236c-0.467,0-0.848,0.394-0.848,0.879v5.094&#10;&#9;&#9;&#9;&#9;&#9;C317.208,275.137,317.59,275.529,318.057,275.529z"/>
			</g>
			<g id="XMLID_10492_">
				<path id="XMLID_12893_" fill="#FFFFFF" stroke="#000000" stroke-width="2" stroke-miterlimit="10" d="M334.291,275.529h10.232&#10;&#9;&#9;&#9;&#9;&#9;c0.466,0,0.846-0.392,0.846-0.882v-5.094c0-0.485-0.38-0.879-0.846-0.879h-10.232c-0.47,0-0.848,0.394-0.848,0.879v5.094&#10;&#9;&#9;&#9;&#9;&#9;C333.443,275.137,333.822,275.529,334.291,275.529z"/>
			</g>
			<g id="XMLID_10491_">
				<path id="XMLID_12892_" fill="#FFFFFF" stroke="#000000" stroke-width="2" stroke-miterlimit="10" d="M350.519,275.529h10.235&#10;&#9;&#9;&#9;&#9;&#9;c0.471,0,0.849-0.392,0.849-0.882v-5.094c0-0.485-0.378-0.879-0.849-0.879h-10.235c-0.463,0-0.845,0.394-0.845,0.879v5.094&#10;&#9;&#9;&#9;&#9;&#9;C349.674,275.137,350.057,275.529,350.519,275.529z"/>
			</g>
			<g id="XMLID_10490_">
				<path id="XMLID_12891_" fill="#FFFFFF" stroke="#000000" stroke-width="2" stroke-miterlimit="10" d="M366.757,275.529h10.231&#10;&#9;&#9;&#9;&#9;&#9;c0.464,0,0.846-0.392,0.846-0.882v-5.094c0-0.485-0.382-0.879-0.846-0.879h-10.231c-0.465,0-0.847,0.394-0.847,0.879v5.094&#10;&#9;&#9;&#9;&#9;&#9;C365.91,275.137,366.292,275.529,366.757,275.529z"/>
			</g>
			<g id="XMLID_10489_">
				<path id="XMLID_12890_" fill="#FFFFFF" stroke="#000000" stroke-width="2" stroke-miterlimit="10" d="M382.996,275.529h10.238&#10;&#9;&#9;&#9;&#9;&#9;c0.463,0,0.846-0.392,0.846-0.882v-5.094c0-0.485-0.384-0.879-0.846-0.879h-10.238c-0.465,0-0.844,0.394-0.844,0.879v5.094&#10;&#9;&#9;&#9;&#9;&#9;C382.152,275.137,382.531,275.529,382.996,275.529z"/>
			</g>
			<g id="XMLID_10488_">
				<path id="XMLID_12889_" fill="#FFFFFF" stroke="#000000" stroke-width="2" stroke-miterlimit="10" d="M399.227,275.529h10.241&#10;&#9;&#9;&#9;&#9;&#9;c0.465,0,0.845-0.392,0.845-0.882v-5.094c0-0.485-0.379-0.879-0.845-0.879h-10.241c-0.463,0-0.845,0.394-0.845,0.879v5.094&#10;&#9;&#9;&#9;&#9;&#9;C398.383,275.137,398.765,275.529,399.227,275.529z"/>
			</g>
			<g id="XMLID_10487_">
				<path id="XMLID_12888_" fill="#FFFFFF" stroke="#000000" stroke-width="2" stroke-miterlimit="10" d="M415.466,275.529h10.232&#10;&#9;&#9;&#9;&#9;&#9;c0.464,0,0.845-0.392,0.845-0.882v-5.094c0-0.485-0.381-0.879-0.845-0.879h-10.232c-0.466,0-0.839,0.394-0.839,0.879v5.094&#10;&#9;&#9;&#9;&#9;&#9;C414.626,275.137,415,275.529,415.466,275.529z"/>
			</g>
			<g id="XMLID_10486_">
				<path id="XMLID_12887_" fill="#FFFFFF" stroke="#000000" stroke-width="2" stroke-miterlimit="10" d="M431.845,275.529h12.014&#10;&#9;&#9;&#9;&#9;&#9;c0.544,0,0.994-0.392,0.994-0.882v-5.094c0-0.485-0.451-0.879-0.994-0.879h-12.014c-0.551,0-0.995,0.394-0.995,0.879v5.094&#10;&#9;&#9;&#9;&#9;&#9;C430.85,275.137,431.294,275.529,431.845,275.529z"/>
			</g>
			<g id="XMLID_10481_">
				<path id="XMLID_12882_" fill="#FFFFFF" stroke="#000000" stroke-width="2" stroke-miterlimit="10" d="M285.577,291.062h10.004&#10;&#9;&#9;&#9;&#9;&#9;c0.439,0,0.807-0.381,0.807-0.841v-9.459c0-0.463-0.367-0.841-0.807-0.841h-10.004c-0.443,0-0.807,0.379-0.807,0.841v9.459&#10;&#9;&#9;&#9;&#9;&#9;C284.77,290.681,285.135,291.062,285.577,291.062z"/>
			</g>
			<g id="XMLID_10480_">
				<path id="XMLID_12881_" fill="#FFFFFF" stroke="#000000" stroke-width="2" stroke-miterlimit="10" d="M301.22,291.062h9.995&#10;&#9;&#9;&#9;&#9;&#9;c0.448,0,0.807-0.381,0.807-0.841v-9.459c0-0.463-0.359-0.841-0.807-0.841h-9.995c-0.449,0-0.81,0.379-0.81,0.841v9.459&#10;&#9;&#9;&#9;&#9;&#9;C300.41,290.681,300.772,291.062,301.22,291.062z"/>
			</g>
			<g id="XMLID_10479_">
				<path id="XMLID_12880_" fill="#FFFFFF" stroke="#000000" stroke-width="2" stroke-miterlimit="10" d="M316.858,291.062h10.008&#10;&#9;&#9;&#9;&#9;&#9;c0.44,0,0.8-0.381,0.8-0.841v-9.457c0-0.464-0.36-0.843-0.8-0.843h-10.008c-0.44,0-0.807,0.379-0.807,0.841v9.459&#10;&#9;&#9;&#9;&#9;&#9;C316.051,290.681,316.418,291.062,316.858,291.062z"/>
			</g>
			<g id="XMLID_10478_">
				<path id="XMLID_12879_" fill="#FFFFFF" stroke="#000000" stroke-width="2" stroke-miterlimit="10" d="M342.503,279.921h-10.005&#10;&#9;&#9;&#9;&#9;&#9;c-0.443,0-0.813,0.379-0.813,0.843v9.457c0,0.46,0.37,0.841,0.813,0.841h10.005c0.444,0,0.807-0.381,0.807-0.841v-9.457&#10;&#9;&#9;&#9;&#9;&#9;C343.309,280.3,342.947,279.921,342.503,279.921z"/>
			</g>
			<g id="XMLID_10477_">
				<path id="XMLID_12878_" fill="#FFFFFF" stroke="#000000" stroke-width="2" stroke-miterlimit="10" d="M358.141,279.921h-10.006&#10;&#9;&#9;&#9;&#9;&#9;c-0.44,0-0.8,0.379-0.8,0.843v9.457c0,0.46,0.36,0.841,0.8,0.841h10.006c0.449,0,0.804-0.381,0.804-0.841v-9.457&#10;&#9;&#9;&#9;&#9;&#9;C358.945,280.3,358.59,279.921,358.141,279.921z"/>
			</g>
			<g id="XMLID_10476_">
				<path id="XMLID_12877_" fill="#FFFFFF" stroke="#000000" stroke-width="2" stroke-miterlimit="10" d="M363.78,291.062h10.002&#10;&#9;&#9;&#9;&#9;&#9;c0.444,0,0.805-0.381,0.805-0.841v-9.457c0-0.464-0.36-0.843-0.805-0.843H363.78c-0.448,0-0.805,0.379-0.805,0.843v9.457&#10;&#9;&#9;&#9;&#9;&#9;C362.976,290.681,363.332,291.062,363.78,291.062z"/>
			</g>
			<g id="XMLID_10475_">
				<path id="XMLID_12876_" fill="#FFFFFF" stroke="#000000" stroke-width="2" stroke-miterlimit="10" d="M389.423,279.921H379.42&#10;&#9;&#9;&#9;&#9;&#9;c-0.443,0-0.807,0.379-0.807,0.843v9.457c0,0.46,0.365,0.841,0.807,0.841h10.003c0.444,0,0.8-0.381,0.8-0.841v-9.457&#10;&#9;&#9;&#9;&#9;&#9;C390.223,280.3,389.867,279.921,389.423,279.921z"/>
			</g>
			<g id="XMLID_10474_">
				<path id="XMLID_12875_" fill="#FFFFFF" stroke="#000000" stroke-width="2" stroke-miterlimit="10" d="M405.063,279.921h-10.007&#10;&#9;&#9;&#9;&#9;&#9;c-0.44,0-0.805,0.379-0.805,0.843v9.457c0,0.46,0.365,0.841,0.805,0.841h10.007c0.446,0,0.808-0.381,0.808-0.841v-9.457&#10;&#9;&#9;&#9;&#9;&#9;C405.871,280.3,405.509,279.921,405.063,279.921z"/>
			</g>
			<g id="XMLID_10473_">
				<path id="XMLID_12874_" fill="#FFFFFF" stroke="#000000" stroke-width="2" stroke-miterlimit="10" d="M420.708,279.921h-10.008&#10;&#9;&#9;&#9;&#9;&#9;c-0.439,0-0.799,0.379-0.799,0.843v9.457c0,0.46,0.36,0.841,0.799,0.841h10.008c0.44,0,0.801-0.381,0.801-0.841v-9.457&#10;&#9;&#9;&#9;&#9;&#9;C421.509,280.3,421.148,279.921,420.708,279.921z"/>
			</g>
			<g id="XMLID_10472_">
				<path id="XMLID_12873_" fill="#FFFFFF" stroke="#000000" stroke-width="2" stroke-miterlimit="10" d="M443.505,279.921h-16.632&#10;&#9;&#9;&#9;&#9;&#9;c-0.733,0-1.341,0.379-1.341,0.843v9.457c0,0.46,0.608,0.841,1.341,0.841h16.632c0.748,0,1.35-0.381,1.35-0.841v-9.457&#10;&#9;&#9;&#9;&#9;&#9;C444.854,280.3,444.252,279.921,443.505,279.921z"/>
			</g>
			<g id="XMLID_10467_">
				<path id="XMLID_12868_" fill="#FFFFFF" stroke="#000000" stroke-width="2" stroke-miterlimit="10" d="M319.733,305.753v-9.461&#10;&#9;&#9;&#9;&#9;&#9;c0-0.464-0.365-0.841-0.813-0.841h-9.997c-0.449,0-0.809,0.377-0.809,0.841v9.461c0,0.464,0.36,0.837,0.809,0.837h9.997&#10;&#9;&#9;&#9;&#9;&#9;C319.368,306.59,319.733,306.218,319.733,305.753z"/>
			</g>
			<g id="XMLID_10466_">
				<path id="XMLID_12867_" fill="#FFFFFF" stroke="#000000" stroke-width="2" stroke-miterlimit="10" d="M285.577,306.59h17.541&#10;&#9;&#9;&#9;&#9;&#9;c0.448,0,0.814-0.372,0.814-0.837v-9.461c0-0.464-0.366-0.841-0.814-0.841h-17.541c-0.443,0-0.807,0.377-0.807,0.841v9.461&#10;&#9;&#9;&#9;&#9;&#9;C284.77,306.218,285.135,306.59,285.577,306.59z"/>
			</g>
			<g id="XMLID_10465_">
				<path id="XMLID_12866_" fill="#FFFFFF" stroke="#000000" stroke-width="2" stroke-miterlimit="10" d="M335.372,305.753v-9.461&#10;&#9;&#9;&#9;&#9;&#9;c0-0.464-0.365-0.841-0.813-0.841h-9.997c-0.447,0-0.805,0.377-0.805,0.841v9.461c0,0.464,0.358,0.837,0.805,0.837h9.997&#10;&#9;&#9;&#9;&#9;&#9;C335.008,306.59,335.372,306.218,335.372,305.753z"/>
			</g>
			<g id="XMLID_10464_">
				<path id="XMLID_12865_" fill="#FFFFFF" stroke="#000000" stroke-width="2" stroke-miterlimit="10" d="M339.399,296.293v9.461&#10;&#9;&#9;&#9;&#9;&#9;c0,0.464,0.358,0.837,0.802,0.837h10.007c0.444,0,0.802-0.372,0.802-0.837v-9.461c0-0.464-0.358-0.841-0.802-0.841h-10.007&#10;&#9;&#9;&#9;&#9;&#9;C339.757,295.452,339.399,295.829,339.399,296.293z"/>
			</g>
			<g id="XMLID_10463_">
				<path id="XMLID_12864_" fill="#FFFFFF" stroke="#000000" stroke-width="2" stroke-miterlimit="10" d="M355.034,296.293v9.461&#10;&#9;&#9;&#9;&#9;&#9;c0,0.464,0.366,0.837,0.811,0.837h9.997c0.45,0,0.81-0.372,0.81-0.837v-9.461c0-0.464-0.36-0.841-0.81-0.841h-9.997&#10;&#9;&#9;&#9;&#9;&#9;C355.4,295.452,355.034,295.829,355.034,296.293z"/>
			</g>
			<g id="XMLID_10462_">
				<path id="XMLID_12863_" fill="#FFFFFF" stroke="#000000" stroke-width="2" stroke-miterlimit="10" d="M370.678,296.293v9.461&#10;&#9;&#9;&#9;&#9;&#9;c0,0.464,0.36,0.837,0.807,0.837h10c0.447,0,0.807-0.372,0.807-0.837v-9.461c0-0.464-0.36-0.841-0.807-0.841h-10&#10;&#9;&#9;&#9;&#9;&#9;C371.038,295.452,370.678,295.829,370.678,296.293z"/>
			</g>
			<g id="XMLID_10461_">
				<path id="XMLID_12862_" fill="#FFFFFF" stroke="#000000" stroke-width="2" stroke-miterlimit="10" d="M386.318,296.293v9.461&#10;&#9;&#9;&#9;&#9;&#9;c0,0.464,0.361,0.837,0.81,0.837h10c0.444,0,0.808-0.372,0.808-0.837v-9.461c0-0.464-0.365-0.841-0.808-0.841h-10&#10;&#9;&#9;&#9;&#9;&#9;C386.679,295.452,386.318,295.829,386.318,296.293z"/>
			</g>
			<g id="XMLID_10460_">
				<path id="XMLID_12861_" fill="#FFFFFF" stroke="#000000" stroke-width="2" stroke-miterlimit="10" d="M401.959,296.293v9.461&#10;&#9;&#9;&#9;&#9;&#9;c0,0.464,0.363,0.837,0.809,0.837h10.001c0.445,0,0.807-0.372,0.807-0.837v-9.461c0-0.464-0.361-0.841-0.807-0.841h-10.001&#10;&#9;&#9;&#9;&#9;&#9;C402.322,295.452,401.959,295.829,401.959,296.293z"/>
			</g>
			<g id="XMLID_10459_">
				<path id="XMLID_12860_" fill="#FFFFFF" stroke="#000000" stroke-width="2" stroke-miterlimit="10" d="M417.605,296.293v9.461&#10;&#9;&#9;&#9;&#9;&#9;c0,0.464,0.355,0.837,0.8,0.837h10.003c0.448,0,0.804-0.372,0.804-0.837v-9.461c0-0.464-0.356-0.841-0.804-0.841h-10.003&#10;&#9;&#9;&#9;&#9;&#9;C417.961,295.452,417.605,295.829,417.605,296.293z"/>
			</g>
			<g id="XMLID_10458_">
				<path id="XMLID_12859_" fill="#FFFFFF" stroke="#000000" stroke-width="2" stroke-miterlimit="10" d="M433.237,296.293v9.461&#10;&#9;&#9;&#9;&#9;&#9;c0,0.464,0.366,0.837,0.814,0.837h9.999c0.44,0,0.803-0.372,0.803-0.837v-9.461c0-0.464-0.363-0.841-0.803-0.841h-9.999&#10;&#9;&#9;&#9;&#9;&#9;C433.603,295.452,433.237,295.829,433.237,296.293z"/>
			</g>
			<g id="XMLID_10454_">
				<path id="XMLID_12855_" fill="#FFFFFF" stroke="#000000" stroke-width="2" stroke-miterlimit="10" d="M286.462,322.118h9.998&#10;&#9;&#9;&#9;&#9;&#9;c0.448,0,0.811-0.371,0.811-0.833v-9.46c0-0.459-0.363-0.842-0.811-0.842h-9.998c-0.45,0-0.807,0.383-0.807,0.842v9.46&#10;&#9;&#9;&#9;&#9;&#9;C285.654,321.748,286.012,322.118,286.462,322.118z"/>
			</g>
			<g id="XMLID_10452_">
				<path id="XMLID_12853_" fill="#FFFFFF" stroke="#000000" stroke-width="2" stroke-miterlimit="10" d="M302.099,322.118h10.002&#10;&#9;&#9;&#9;&#9;&#9;c0.45,0,0.808-0.371,0.808-0.833v-9.46c0-0.459-0.358-0.842-0.808-0.842h-10.002c-0.444,0-0.806,0.383-0.806,0.842v9.46&#10;&#9;&#9;&#9;&#9;&#9;C301.292,321.748,301.655,322.118,302.099,322.118z"/>
			</g>
			<g id="XMLID_10451_">
				<path id="XMLID_12852_" fill="#FFFFFF" stroke="#000000" stroke-width="2" stroke-miterlimit="10" d="M328.552,321.285v-9.46&#10;&#9;&#9;&#9;&#9;&#9;c0-0.459-0.362-0.842-0.804-0.842H317.74c-0.439,0-0.806,0.383-0.806,0.842v9.46c0,0.463,0.366,0.833,0.806,0.833h10.008&#10;&#9;&#9;&#9;&#9;&#9;C328.19,322.118,328.552,321.748,328.552,321.285z"/>
			</g>
			<g id="XMLID_10450_">
				<path id="XMLID_12851_" fill="#FFFFFF" stroke="#000000" stroke-width="2" stroke-miterlimit="10" d="M386.442,321.285v-9.46&#10;&#9;&#9;&#9;&#9;&#9;c0-0.459-0.367-0.842-0.807-0.842h-51.97c-0.44,0-0.807,0.383-0.807,0.842v9.46c0,0.463,0.367,0.833,0.807,0.833h51.97&#10;&#9;&#9;&#9;&#9;&#9;C386.075,322.118,386.442,321.748,386.442,321.285z"/>
			</g>
			<g id="XMLID_10448_">
				<path id="XMLID_12849_" fill="#FFFFFF" stroke="#000000" stroke-width="2" stroke-miterlimit="10" d="M401.676,321.285v-9.46&#10;&#9;&#9;&#9;&#9;&#9;c0-0.459-0.358-0.842-0.805-0.842h-9.999c-0.448,0-0.804,0.383-0.804,0.842v9.46c0,0.463,0.356,0.833,0.804,0.833h9.999&#10;&#9;&#9;&#9;&#9;&#9;C401.318,322.118,401.676,321.748,401.676,321.285z"/>
			</g>
			<g id="XMLID_10447_">
				<path id="XMLID_12848_" fill="#FFFFFF" stroke="#000000" stroke-width="2" stroke-miterlimit="10" d="M417.323,321.285v-9.46&#10;&#9;&#9;&#9;&#9;&#9;c0-0.459-0.366-0.842-0.813-0.842h-9.997c-0.447,0-0.812,0.383-0.812,0.842v9.46c0,0.463,0.365,0.833,0.812,0.833h9.997&#10;&#9;&#9;&#9;&#9;&#9;C416.957,322.118,417.323,321.748,417.323,321.285z"/>
			</g>
			<g id="XMLID_77_">
				<path fill="#FFFFFF" stroke="#000000" stroke-width="2" stroke-miterlimit="10" d="M419.229,316.551v4.734&#10;&#9;&#9;&#9;&#9;&#9;c0,0.463,0.365,0.833,0.812,0.833h9.997c0.446,0,0.813-0.371,0.813-0.833v-4.734H419.229z"/>
				<path fill="#FFFFFF" stroke="#000000" stroke-width="2" stroke-miterlimit="10" d="M430.85,316.214v-4.389&#10;&#9;&#9;&#9;&#9;&#9;c0-0.459-0.366-0.842-0.813-0.842h-9.997c-0.447,0-0.812,0.383-0.812,0.842v4.389H430.85z"/>
			</g>
			<g id="XMLID_10446_">
				<path id="XMLID_12847_" fill="#FFFFFF" stroke="#000000" stroke-width="2" stroke-miterlimit="10" d="M444.854,321.285v-9.46&#10;&#9;&#9;&#9;&#9;&#9;c0-0.459-0.362-0.842-0.809-0.842h-10c-0.441,0-0.807,0.383-0.807,0.842v9.46c0,0.463,0.366,0.833,0.807,0.833h10&#10;&#9;&#9;&#9;&#9;&#9;C444.492,322.118,444.854,321.748,444.854,321.285z"/>
			</g>
		</g>
		<g id="XMLID_10415_">
			<path id="XMLID_12650_" fill="#DEDFE0" stroke="#000000" stroke-width="2" stroke-miterlimit="10" d="M351.844,373.231&#10;&#9;&#9;&#9;&#9;c0,0.786-0.647,1.42-1.44,1.42h-54.686c-0.792,0-1.438-0.634-1.438-1.42v-31.664c0-0.784,0.646-1.417,1.438-1.417h54.686&#10;&#9;&#9;&#9;&#9;c0.793,0,1.44,0.632,1.44,1.417V373.231z"/>
		</g>
		
			<path d="M 323.062988 374.651001 L 323.062988 366.674988" fill="none" stroke="#000000" stroke-width="2" stroke-miterlimit="10"/>
		
			<path d="M 294.281006 366.674988 L 351.843994 366.674988" fill="none" stroke="#000000" stroke-width="2" stroke-miterlimit="10"/>
	</g>
<g transform="matrix(1, 0, 0, 1, -2.842170943040401e-14, 0)">
		<g>
			<g>
				<path fill="#1FB5D8" stroke="#000000" stroke-width="2" stroke-miterlimit="10" d="M310.861,44.153&#10;&#9;&#9;&#9;&#9;&#9;c-5.179,0-9.381,4.199-9.381,9.38v150.121c0,5.184,4.202,9.384,9.381,9.384h107.901c5.182,0,9.382-4.2,9.382-9.384V87.602&#10;&#9;&#9;&#9;&#9;&#9;l-45.226-43.449H310.861z"/>
			</g>
			
				<path fill="#1A2E2D" stroke="#000000" stroke-width="2" stroke-linecap="round" stroke-linejoin="round" stroke-miterlimit="10" d="&#10;&#9;&#9;&#9;&#9;M428.144,87.602h-35.845c-5.181,0-9.381-4.199-9.381-9.381V44.153L428.144,87.602z"/>
		</g>
	</g><text transform="matrix(0.9158999919891357, 0, 0, 1, 323.2591857910156, 145.63389587402344)" fill="#FFFFFF" font-family="'Arial-BoldMT'" font-size="34.115px" style="fill: rgb(255, 255, 255); font-weight: bold; font-family: 'Arial MT'; font-size: 34.115px; white-space: pre;">HTML</text>
<g transform="matrix(1, 0, 0, 1, -2.842170943040401e-14, 0)">
		
			<path d="M 503.820007 477.53299 L 514.073975 477.204987" fill="none" stroke="#000000" stroke-width="2" stroke-linecap="round" stroke-linejoin="round" stroke-miterlimit="10"/>
		
			<path d="M 508.779999 472.239014 L 509.108002 482.497986" fill="none" stroke="#000000" stroke-width="2" stroke-linecap="round" stroke-linejoin="round" stroke-miterlimit="10"/>
	</g><path d="M 665.942993 215.574005 L 676.195984 215.246002" fill="none" stroke="#000000" stroke-width="2" stroke-linecap="round" stroke-linejoin="round" stroke-miterlimit="10" transform="matrix(1, 0, 0, 1, -5.684341886080802e-14, 0)"/><path d="M 670.903015 210.279999 L 671.231018 220.539001" fill="none" stroke="#000000" stroke-width="2" stroke-linecap="round" stroke-linejoin="round" stroke-miterlimit="10" transform="matrix(1, 0, 0, 1, -5.684341886080802e-14, 0)"/><path d="M 447.247009 41.377998 L 457.5 41.049999" fill="none" stroke="#000000" stroke-width="2" stroke-linecap="round" stroke-linejoin="round" stroke-miterlimit="10" transform="matrix(1, 0, 0, 1, -5.684341886080802e-14, 0)"/><path d="M 452.205994 36.084 L 452.535004 46.342999" fill="none" stroke="#000000" stroke-width="2" stroke-linecap="round" stroke-linejoin="round" stroke-miterlimit="10" transform="matrix(1, 0, 0, 1, -5.684341886080802e-14, 0)"/><path d="M 238.395004 56.709999 L 248.649002 56.382" fill="none" stroke="#000000" stroke-width="2" stroke-linecap="round" stroke-linejoin="round" stroke-miterlimit="10" transform="matrix(1, 0, 0, 1, -5.684341886080802e-14, 0)"/><path d="M 243.354996 51.416 L 243.682999 61.674999" fill="none" stroke="#000000" stroke-width="2" stroke-linecap="round" stroke-linejoin="round" stroke-miterlimit="10" transform="matrix(1, 0, 0, 1, -5.684341886080802e-14, 0)"/><path d="M 25.537001 221.248993 L 35.791 220.921005" fill="none" stroke="#000000" stroke-width="2" stroke-linecap="round" stroke-linejoin="round" stroke-miterlimit="10" transform="matrix(1, 0, 0, 1, -5.684341886080802e-14, 0)"/><path d="M 30.497 215.955002 L 30.825001 226.214005" fill="none" stroke="#000000" stroke-width="2" stroke-linecap="round" stroke-linejoin="round" stroke-miterlimit="10" transform="matrix(1, 0, 0, 1, -5.684341886080802e-14, 0)"/><path d="M 666.289001 57.824001 L 676.54303 57.495998" fill="none" stroke="#000000" stroke-width="2" stroke-linecap="round" stroke-linejoin="round" stroke-miterlimit="10" transform="matrix(1, 0, 0, 1, -5.684341886080802e-14, 0)"/><path d="M 671.249023 52.529999 L 671.577026 62.789001" fill="none" stroke="#000000" stroke-width="2" stroke-linecap="round" stroke-linejoin="round" stroke-miterlimit="10" transform="matrix(1, 0, 0, 1, -5.684341886080802e-14, 0)"/><path d="M 43.312 274.946991 L 53.566002 274.618988" fill="none" stroke="#000000" stroke-width="2" stroke-linecap="round" stroke-linejoin="round" stroke-miterlimit="10" transform="matrix(1, 0, 0, 1, -5.684341886080802e-14, 0)"/><path d="M 48.271999 269.653015 L 48.599998 279.911011" fill="none" stroke="#000000" stroke-width="2" stroke-linecap="round" stroke-linejoin="round" stroke-miterlimit="10" transform="matrix(1, 0, 0, 1, -5.684341886080802e-14, 0)"/><path d="M 15.197 297.545013 L 25.451 297.21701" fill="none" stroke="#000000" stroke-width="2" stroke-linecap="round" stroke-linejoin="round" stroke-miterlimit="10" transform="matrix(1, 0, 0, 1, -5.684341886080802e-14, 0)"/><path d="M 20.157 292.251007 L 20.485001 302.51001" fill="none" stroke="#000000" stroke-width="2" stroke-linecap="round" stroke-linejoin="round" stroke-miterlimit="10" transform="matrix(1, 0, 0, 1, -5.684341886080802e-14, 0)"/><path d="M 618.379028 194.175003 L 628.632996 193.847" fill="none" stroke="#000000" stroke-width="2" stroke-linecap="round" stroke-linejoin="round" stroke-miterlimit="10" transform="matrix(1, 0, 0, 1, -5.684341886080802e-14, 0)"/><path d="M 623.338989 188.880997 L 623.666992 199.139999" fill="none" stroke="#000000" stroke-width="2" stroke-linecap="round" stroke-linejoin="round" stroke-miterlimit="10" transform="matrix(1, 0, 0, 1, -5.684341886080802e-14, 0)"/><path d="M 479.720999 464.194 A 4.191 4.191 0 0 1 475.529999 468.385 A 4.191 4.191 0 0 1 471.338999 464.194 A 4.191 4.191 0 0 1 475.529999 460.003 A 4.191 4.191 0 0 1 479.720999 464.194 Z" transform="matrix(0.8464000225067139, -0.5324999690055847, 0.5324999690055847, 0.8464000225067139, -174.162094116211, 324.5343933105469)" fill="none" stroke="#000000" stroke-width="2" stroke-linecap="round" stroke-linejoin="round" stroke-miterlimit="10"/><path d="M 482.420004 30.086 A 4.191 4.191 0 0 1 478.229004 34.277 A 4.191 4.191 0 0 1 474.038004 30.086 A 4.191 4.191 0 0 1 478.229004 25.895 A 4.191 4.191 0 0 1 482.420004 30.086 Z" transform="matrix(0.8464000225067139, -0.5324999690055847, 0.5324999690055847, 0.8464000225067139, 57.42929840087888, 259.293212890625)" fill="none" stroke="#000000" stroke-width="2" stroke-linecap="round" stroke-linejoin="round" stroke-miterlimit="10"/><path fill="none" stroke="#000000" stroke-width="2" stroke-linecap="round" stroke-linejoin="round" stroke-miterlimit="10" d="&#10;&#9;&#9;&#9;M265.287,79.535c-2.166,1.888-5.487,1.134-6.632-1.495c-0.712-1.636-0.262-3.624,1.085-4.794c2.161-1.878,5.473-1.133,6.623,1.49&#10;&#9;&#9;&#9;C267.081,76.371,266.634,78.361,265.287,79.535z" transform="matrix(1, 0, 0, 1, -5.684341886080802e-14, 0)"/><path fill="none" stroke="#000000" stroke-width="2" stroke-linecap="round" stroke-linejoin="round" stroke-miterlimit="10" d="&#10;&#9;&#9;&#9;M275.995,42.191c-2.166,1.887-5.487,1.134-6.631-1.495c-0.712-1.636-0.262-3.624,1.085-4.794c2.161-1.878,5.473-1.133,6.623,1.49&#10;&#9;&#9;&#9;C277.789,39.027,277.341,41.017,275.995,42.191z" transform="matrix(1, 0, 0, 1, -5.684341886080802e-14, 0)"/><path d="M 559.863974 183.529007 A 4.191 4.191 0 0 1 555.672974 187.720007 A 4.191 4.191 0 0 1 551.481974 183.529007 A 4.191 4.191 0 0 1 555.672974 179.338007 A 4.191 4.191 0 0 1 559.863974 183.529007 Z" transform="matrix(0.8464000225067139, -0.5324999690055847, 0.5324999690055847, 0.8464000225067139, -12.387200355529842, 324.1111145019531)" fill="none" stroke="#000000" stroke-width="2" stroke-linecap="round" stroke-linejoin="round" stroke-miterlimit="10"/><path d="M 241.310995 260.43399 A 4.191 4.191 0 0 1 237.119995 264.62499 A 4.191 4.191 0 0 1 232.928995 260.43399 A 4.191 4.191 0 0 1 237.119995 256.24299 A 4.191 4.191 0 0 1 241.310995 260.43399 Z" transform="matrix(0.8464000225067139, -0.5324999690055847, 0.5324999690055847, 0.8464000225067139, -102.27159881591801, 166.27969360351562)" fill="none" stroke="#000000" stroke-width="2" stroke-linecap="round" stroke-linejoin="round" stroke-miterlimit="10"/><path d="M 244.920004 469.92099 A 4.191 4.191 0 0 1 240.729004 474.11199 A 4.191 4.191 0 0 1 236.538004 469.92099 A 4.191 4.191 0 0 1 240.729004 465.72999 A 4.191 4.191 0 0 1 244.920004 469.92099 Z" transform="matrix(0.8464000225067139, -0.5324999690055847, 0.5324999690055847, 0.8464000225067139, -213.27609252929693, 200.3740997314453)" fill="none" stroke="#000000" stroke-width="2" stroke-linecap="round" stroke-linejoin="round" stroke-miterlimit="10"/><path d="M 403.191 17.194 A 4.191 4.191 0 0 1 399 21.385 A 4.191 4.191 0 0 1 394.809 17.194 A 4.191 4.191 0 0 1 399 13.003 A 4.191 4.191 0 0 1 403.191 17.194 Z" transform="matrix(0.8464000225067139, -0.5324999690055847, 0.5324999690055847, 0.8464000225067139, 52.126399993896456, 215.12109375)" fill="none" stroke="#000000" stroke-width="2" stroke-linecap="round" stroke-linejoin="round" stroke-miterlimit="10"/><path d="M 658.383017 252.940994 A 4.191 4.191 0 0 1 654.192017 257.131994 A 4.191 4.191 0 0 1 650.001017 252.940994 A 4.191 4.191 0 0 1 654.192017 248.749994 A 4.191 4.191 0 0 1 658.383017 252.940994 Z" transform="matrix(0.8464000225067139, -0.5324999690055847, 0.5324999690055847, 0.8464000225067139, -34.220600128173885, 387.23260498046875)" fill="none" stroke="#000000" stroke-width="2" stroke-linecap="round" stroke-linejoin="round" stroke-miterlimit="10"/><path d="M 491.728994 174.587997 A 4.191 4.191 0 0 1 487.537994 178.778997 A 4.191 4.191 0 0 1 483.346994 174.587997 A 4.191 4.191 0 0 1 487.537994 170.396997 A 4.191 4.191 0 0 1 491.728994 174.587997 Z" transform="matrix(0.8464000225067139, -0.5324999690055847, 0.5324999690055847, 0.8464000225067139, -18.090900421142635, 286.4529113769531)" fill="none" stroke="#000000" stroke-width="2" stroke-linecap="round" stroke-linejoin="round" stroke-miterlimit="10"/><path d="M 113.080999 464.640015 A 4.191 4.191 0 0 1 108.889999 468.831015 A 4.191 4.191 0 0 1 104.698999 464.640015 A 4.191 4.191 0 0 1 108.889999 460.449015 A 4.191 4.191 0 0 1 113.080999 464.640015 Z" transform="matrix(0.8464000225067139, -0.5324999690055847, 0.5324999690055847, 0.8464000225067139, -230.71650695800787, 129.3571014404297)" fill="none" stroke="#000000" stroke-width="2" stroke-linecap="round" stroke-linejoin="round" stroke-miterlimit="10"/><path d="M 42.838999 336.937988 A 4.191 4.191 0 0 1 38.647999 341.128988 A 4.191 4.191 0 0 1 34.456999 336.937988 A 4.191 4.191 0 0 1 38.647999 332.746988 A 4.191 4.191 0 0 1 42.838999 336.937988 Z" transform="matrix(0.8464000225067139, -0.5324999690055847, 0.5324999690055847, 0.8464000225067139, -173.4985961914063, 72.33480072021484)" fill="none" stroke="#000000" stroke-width="2" stroke-linecap="round" stroke-linejoin="round" stroke-miterlimit="10"/><path d="M 646.55599 199.139008 A 4.191 4.191 0 0 1 642.36499 203.330008 A 4.191 4.191 0 0 1 638.17399 199.139008 A 4.191 4.191 0 0 1 642.36499 194.948008 A 4.191 4.191 0 0 1 646.55599 199.139008 Z" transform="matrix(0.8464000225067139, -0.5324999690055847, 0.5324999690055847, 0.8464000225067139, -7.383999824523983, 372.6763000488281)" fill="none" stroke="#000000" stroke-width="2" stroke-linecap="round" stroke-linejoin="round" stroke-miterlimit="10"/><path d="M 706.763021 336.584991 A 4.191 4.191 0 0 1 702.572021 340.775991 A 4.191 4.191 0 0 1 698.381021 336.584991 A 4.191 4.191 0 0 1 702.572021 332.393991 A 4.191 4.191 0 0 1 706.763021 336.584991 Z" transform="matrix(0.8464000225067139, -0.5324999690055847, 0.5324999690055847, 0.8464000225067139, -71.33280181884771, 425.8507080078125)" fill="none" stroke="#000000" stroke-width="2" stroke-linecap="round" stroke-linejoin="round" stroke-miterlimit="10"/><path d="M 678.144979 429.005005 A 4.191 4.191 0 0 1 673.953979 433.196005 A 4.191 4.191 0 0 1 669.76298 429.005005 A 4.191 4.191 0 0 1 673.953979 424.814005 A 4.191 4.191 0 0 1 678.144979 429.005005 Z" transform="matrix(0.8464000225067139, -0.5324999690055847, 0.5324999690055847, 0.8464000225067139, -124.94640350341801, 424.79638671875)" fill="none" stroke="#000000" stroke-width="2" stroke-linecap="round" stroke-linejoin="round" stroke-miterlimit="10"/><path d="M 681.606995 171.546005 L 690.833984 171.546005" fill="none" stroke="#000000" stroke-width="2" stroke-linecap="round" stroke-linejoin="round" stroke-miterlimit="10" transform="matrix(1, 0, 0, 1, -2.842170943040401e-14, 0)"/><path d="M 184.375 264.38501 L 193.602005 264.38501" fill="none" stroke="#000000" stroke-width="2" stroke-linecap="round" stroke-linejoin="round" stroke-miterlimit="10" transform="matrix(1, 0, 0, 1, -2.842170943040401e-14, 0)"/><path d="M 195.093994 274.782013 L 204.322006 274.782013" fill="none" stroke="#000000" stroke-width="2" stroke-linecap="round" stroke-linejoin="round" stroke-miterlimit="10" transform="matrix(1, 0, 0, 1, -2.842170943040401e-14, 0)"/><path d="M 237.119995 30.761 L 246.347 30.761" fill="none" stroke="#000000" stroke-width="2" stroke-linecap="round" stroke-linejoin="round" stroke-miterlimit="10" transform="matrix(1, 0, 0, 1, -2.842170943040401e-14, 0)"/><path d="M 222.863007 409.101013 L 233.117004 408.77301" fill="none" stroke="#000000" stroke-width="2" stroke-linecap="round" stroke-linejoin="round" stroke-miterlimit="10" transform="matrix(1, 0, 0, 1, -5.684341886080802e-14, 0)"/><path d="M 227.822998 403.807007 L 228.151001 414.06601" fill="none" stroke="#000000" stroke-width="2" stroke-linecap="round" stroke-linejoin="round" stroke-miterlimit="10" transform="matrix(1, 0, 0, 1, -5.684341886080802e-14, 0)"/><path fill="none" stroke="#000000" stroke-width="2" stroke-linecap="round" stroke-linejoin="round" stroke-miterlimit="10" d="&#10;&#9;&#9;&#9;M260.463,394.581c-2.166,1.887-5.487,1.134-6.631-1.495c-0.712-1.636-0.262-3.624,1.085-4.794c2.161-1.878,5.473-1.133,6.623,1.49&#10;&#9;&#9;&#9;C262.257,391.418,261.809,393.408,260.463,394.581z" transform="matrix(1, 0, 0, 1, -5.684341886080802e-14, 0)"/><path d="M 221.587997 383.152008 L 230.815002 383.152008" fill="none" stroke="#000000" stroke-width="2" stroke-linecap="round" stroke-linejoin="round" stroke-miterlimit="10" transform="matrix(1, 0, 0, 1, -2.842170943040401e-14, 0)"/><path d="M 195.093994 423.436005 L 204.322006 423.436005" fill="none" stroke="#000000" stroke-width="2" stroke-linecap="round" stroke-linejoin="round" stroke-miterlimit="10" transform="matrix(1, 0, 0, 1, -2.842170943040401e-14, 0)"/><path d="M 689.564026 80.404999 L 698.791016 80.404999" fill="none" stroke="#000000" stroke-width="2" stroke-linecap="round" stroke-linejoin="round" stroke-miterlimit="10" transform="matrix(1, 0, 0, 1, -2.842170943040401e-14, 0)"/><path d="M 689.247009 436.253998 L 698.473999 436.253998" fill="none" stroke="#000000" stroke-width="2" stroke-linecap="round" stroke-linejoin="round" stroke-miterlimit="10" transform="matrix(1, 0, 0, 1, -2.842170943040401e-14, 0)"/><path d="M 450.768005 446.781006 L 459.996002 446.781006" fill="none" stroke="#000000" stroke-width="2" stroke-linecap="round" stroke-linejoin="round" stroke-miterlimit="10" transform="matrix(1, 0, 0, 1, -2.842170943040401e-14, 0)"/><path d="M 692.63501 296.044006 L 701.862 296.044006" fill="none" stroke="#000000" stroke-width="2" stroke-linecap="round" stroke-linejoin="round" stroke-miterlimit="10" transform="matrix(1, 0, 0, 1, -2.842170943040401e-14, 0)"/><path d="M 477.807007 55.673 L 487.035004 55.673" fill="none" stroke="#000000" stroke-width="2" stroke-linecap="round" stroke-linejoin="round" stroke-miterlimit="10" transform="matrix(1, 0, 0, 1, -2.842170943040401e-14, 0)"/><path d="M 647.137024 479.949005 L 656.364014 479.949005" fill="none" stroke="#000000" stroke-width="2" stroke-linecap="round" stroke-linejoin="round" stroke-miterlimit="10" transform="matrix(1, 0, 0, 1, -2.842170943040401e-14, 0)"/><path d="M 175.910004 481.326996 L 185.136993 481.326996" fill="none" stroke="#000000" stroke-width="2" stroke-linecap="round" stroke-linejoin="round" stroke-miterlimit="10" transform="matrix(1, 0, 0, 1, -2.842170943040401e-14, 0)"/>
</svg>