<?xml version="1.0" encoding="utf-8"?>
<svg id="master-artboard" viewBox="0 0 335.9859924316406 220" version="1.1" xmlns="http://www.w3.org/2000/svg" x="0px" y="0px" width="335.9859924316406px" height="220px" enable-background="new 0 0 335.986 235.19"><rect id="ee-background" x="0" y="0" width="335.9859924316406" height="220" style="fill: white; fill-opacity: 0; pointer-events: none;"/>
<path d="M 95.739998 211.294998 H 238.653999 V 222.829998 H 95.739998 V 211.294998 Z" fill-rule="evenodd" clip-rule="evenodd" fill="none" transform="matrix(1, 0, 0, 1, -2.842170943040401e-14, 0)"/><path fill-rule="evenodd" clip-rule="evenodd" fill="#ECECEC" d="M105.14,76.488h126.988c4.262,0,7.744,3.482,7.744,7.736v85.604&#10;&#9;&#9;H97.396V84.225C97.396,79.971,100.879,76.488,105.14,76.488z" transform="matrix(1, 0, 0, 1, -2.842170943040401e-14, 0)"/><path fill-rule="evenodd" clip-rule="evenodd" fill="#1A3E52" d="M105.14,78.879h126.988c2.945,0,5.354,2.413,5.354,5.346v83.215&#10;&#9;&#9;H99.788V84.225C99.788,81.292,102.192,78.879,105.14,78.879z" transform="matrix(1, 0, 0, 1, -2.842170943040401e-14, 0)"/><path d="M 104.676003 83.407997 H 232.587006 V 162.663994 H 104.676003 V 83.407997 Z" fill-rule="evenodd" clip-rule="evenodd" fill="#7AEBD4" stroke="#000000" stroke-width="2" stroke-miterlimit="10" transform="matrix(1, 0, 0, 1, -2.842170943040401e-14, 0)"/><path fill-rule="evenodd" clip-rule="evenodd" fill="#FFFFFF" stroke="#000000" stroke-width="2" stroke-miterlimit="10" d="&#10;&#9;&#9;M87.464,165.176h162.33c1.549,0,2.812,1.43,2.812,3.111v3.564c0,1.672-1.305,3.117-2.812,3.117H87.464&#10;&#9;&#9;c-1.507,0-2.815-1.412-2.815-3.117v-3.564C84.649,166.584,85.927,165.176,87.464,165.176z" transform="matrix(1, 0, 0, 1, -2.842170943040401e-14, 0)"/><path fill-rule="evenodd" clip-rule="evenodd" fill="#FFFFFF" stroke="#000000" stroke-width="2" stroke-miterlimit="10" d="&#10;&#9;&#9;M155.345,165.598h26.566c0.254,0,0.461,0.537,0.461,1.17v1.34c0,0.627-0.213,1.172-0.461,1.172h-26.566&#10;&#9;&#9;c-0.247,0-0.461-0.531-0.461-1.172v-1.34C154.884,166.129,155.093,165.598,155.345,165.598z" transform="matrix(1, 0, 0, 1, -2.842170943040401e-14, 0)"/><path d="M 95.488998 49.209999 A 21.653999 21.653999 0 0 1 73.834999 70.863998 A 21.653999 21.653999 0 0 1 52.181 49.209999 A 21.653999 21.653999 0 0 1 73.834999 27.556 A 21.653999 21.653999 0 0 1 95.488998 49.209999 Z" fill="#7AEBD4" stroke="#000000" stroke-width="2" stroke-miterlimit="10" transform="matrix(1, 0, 0, 1, -2.842170943040401e-14, 0)"/><path d="M 286.212013 49.209999 A 21.653999 21.653999 0 0 1 264.558014 70.863998 A 21.653999 21.653999 0 0 1 242.904015 49.209999 A 21.653999 21.653999 0 0 1 264.558014 27.556 A 21.653999 21.653999 0 0 1 286.212013 49.209999 Z" fill="#7AEBD4" stroke="#000000" stroke-width="2" stroke-miterlimit="10" transform="matrix(1, 0, 0, 1, -2.842170943040401e-14, 0)"/><path d="M 310.970985 117.277 A 21.653999 21.653999 0 0 1 289.316986 138.931 A 21.653999 21.653999 0 0 1 267.662987 117.277 A 21.653999 21.653999 0 0 1 289.316986 95.623001 A 21.653999 21.653999 0 0 1 310.970985 117.277 Z" fill="#7AEBD4" stroke="#000000" stroke-width="2" stroke-miterlimit="10" transform="matrix(1, 0, 0, 1, -2.842170943040401e-14, 0)"/><path d="M 310.077003 180.608994 A 21.653999 21.653999 0 0 1 288.423004 202.262993 A 21.653999 21.653999 0 0 1 266.769005 180.608994 A 21.653999 21.653999 0 0 1 288.423004 158.954994 A 21.653999 21.653999 0 0 1 310.077003 180.608994 Z" fill="#7AEBD4" stroke="#000000" stroke-width="2" stroke-miterlimit="10" transform="matrix(1, 0, 0, 1, -2.842170943040401e-14, 0)"/><path d="M 70.652 117.277 A 21.653999 21.653999 0 0 1 48.998001 138.931 A 21.653999 21.653999 0 0 1 27.344002 117.277 A 21.653999 21.653999 0 0 1 48.998001 95.623001 A 21.653999 21.653999 0 0 1 70.652 117.277 Z" fill="#7AEBD4" stroke="#000000" stroke-width="2" stroke-miterlimit="10" transform="matrix(1, 0, 0, 1, -2.842170943040401e-14, 0)"/><path d="M 71.547001 180.608994 A 21.653999 21.653999 0 0 1 49.893002 202.262993 A 21.653999 21.653999 0 0 1 28.239002 180.608994 A 21.653999 21.653999 0 0 1 49.893002 158.954994 A 21.653999 21.653999 0 0 1 71.547001 180.608994 Z" fill="#7AEBD4" stroke="#000000" stroke-width="2" stroke-miterlimit="10" transform="matrix(1, 0, 0, 1, -2.842170943040401e-14, 0)"/><path d="M 190.851 35.443001 A 21.655001 21.655001 0 0 1 169.195999 57.098001 A 21.655001 21.655001 0 0 1 147.540998 35.443001 A 21.655001 21.655001 0 0 1 169.195999 13.788 A 21.655001 21.655001 0 0 1 190.851 35.443001 Z" fill="#7AEBD4" stroke="#000000" stroke-width="2" stroke-miterlimit="10" transform="matrix(1, 0, 0, 1, -2.842170943040401e-14, 0)"/><path fill="none" stroke="#0E3C54" stroke-width="2" stroke-miterlimit="10" stroke-dasharray="2" d="M190.851,35.451h15.334&#10;&#9;&#9;c0,0,6.381-0.521,6.381,6.38v35.697" transform="matrix(1, 0, 0, 1, -2.842170943040401e-14, 0)"/><path fill="none" stroke="#0E3C54" stroke-width="2" stroke-miterlimit="10" stroke-dasharray="2" d="M251.532,104.503v5.334&#10;&#9;&#9;c0,0,0.521,6.379-6.381,6.379h-6.498" transform="matrix(1, 0, 0, 1, -2.842170943040401e-14, 0)"/><path fill="none" stroke="#0E3C54" stroke-width="2" stroke-miterlimit="10" stroke-dasharray="2" d="M286.202,138.863v5.334&#10;&#9;&#9;c0,0,0.521,6.379-6.379,6.379h-41.951" transform="matrix(1, 0, 0, 1, -2.842170943040401e-14, 0)"/><path fill="none" stroke="#0E3C54" stroke-width="2" stroke-miterlimit="10" stroke-dasharray="2" d="M277.437,67.23v17.999&#10;&#9;&#9;c0,0,0.521,6.38-6.381,6.38h-6.498v-0.318h-6.5c-6.902,0-6.379,6.38-6.379,6.38v5.334" transform="matrix(1, 0, 0, 1, -2.842170943040401e-14, 0)"/><g transform="matrix(1, 0, 0, 1, -5.684341886080802e-14, 0)">
			
				<path d="M 274.098999 196.404007 L 274.098999 197.404007" fill="none" stroke="#0E3C54" stroke-width="2" stroke-miterlimit="10"/>
			<path fill="none" stroke="#0E3C54" stroke-width="2" stroke-miterlimit="10" stroke-dasharray="1.8282,1.8282" d="&#10;&#9;&#9;&#9;&#9;M274.099,199.232v2.506c0,0,0.521,6.381-6.381,6.381h-4.584"/>
			<path d="M 262.220001 208.119003 L 261.220001 208.119003 L 262.053986 208.108994 L 261.053986 208.108994" fill="none" stroke="#0E3C54" stroke-width="2" stroke-miterlimit="10"/>
			<path fill="none" stroke="#0E3C54" stroke-width="2" stroke-miterlimit="10" stroke-dasharray="2.057,2.057" d="M258.997,208.109&#10;&#9;&#9;&#9;&#9;h-2.277c0,0-6.381,0.521-6.381-6.379v-2.367l0.027-0.914v-6.5c0-6.9-6.379-6.379-6.379-6.379h-5.334l-1.258-0.018h-5.334&#10;&#9;&#9;&#9;&#9;c0,0-6.381,0.521-6.381-6.381v-1.75"/>
			
				<path d="M 225.681 176.393005 L 225.681 175.393005" fill="none" stroke="#0E3C54" stroke-width="2" stroke-miterlimit="10"/>
		</g><path fill="none" stroke="#0E3C54" stroke-width="2" stroke-miterlimit="10" stroke-dasharray="2" d="M85.159,104.503v5.334&#10;&#9;&#9;c0,0-0.521,6.379,6.38,6.379h6.499" transform="matrix(1, 0, 0, 1, -2.842170943040401e-14, 0)"/><path fill="none" stroke="#0E3C54" stroke-width="2" stroke-miterlimit="10" stroke-dasharray="2" d="M50.488,138.863v5.334&#10;&#9;&#9;c0,0-0.521,6.379,6.38,6.379h41.95" transform="matrix(1, 0, 0, 1, -2.842170943040401e-14, 0)"/><path fill="none" stroke="#0E3C54" stroke-width="2" stroke-miterlimit="10" stroke-dasharray="2" d="M59.255,67.23v17.999&#10;&#9;&#9;c0,0-0.521,6.38,6.38,6.38h6.499v-0.318h6.499c6.902,0,6.38,6.38,6.38,6.38v5.334" transform="matrix(1, 0, 0, 1, -2.842170943040401e-14, 0)"/><g transform="matrix(1, 0, 0, 1, -5.684341886080802e-14, 0)">
			
				<path d="M 62.591999 198.684006 L 62.591999 199.684006" fill="none" stroke="#0E3C54" stroke-width="2" stroke-miterlimit="10"/>
			<path fill="none" stroke="#0E3C54" stroke-width="2" stroke-miterlimit="10" stroke-dasharray="1.9814,1.9814" d="&#10;&#9;&#9;&#9;&#9;M62.592,201.664v0.074c0,0-0.521,6.381,6.38,6.381h4.508"/>
			<path d="M 74.471001 208.119003 L 75.471001 208.119003 L 74.637001 208.108994 L 75.637001 208.108994" fill="none" stroke="#0E3C54" stroke-width="2" stroke-miterlimit="10"/>
			<path fill="none" stroke="#0E3C54" stroke-width="2" stroke-miterlimit="10" stroke-dasharray="2.057,2.057" d="M77.694,208.109&#10;&#9;&#9;&#9;&#9;h2.277c0,0,6.38,0.521,6.38-6.379v-2.367l-0.027-0.914v-6.5c0-6.9,6.38-6.379,6.38-6.379h5.334l1.257-0.018h5.334&#10;&#9;&#9;&#9;&#9;c0,0,6.38,0.521,6.38-6.381v-1.75"/>
			
				<path d="M 111.009003 176.393005 L 111.009003 175.393005" fill="none" stroke="#0E3C54" stroke-width="2" stroke-miterlimit="10"/>
		</g><path fill="#FFFFFF" stroke="#1D1D1B" stroke-width="2" stroke-linecap="round" stroke-linejoin="round" stroke-miterlimit="10" d="&#10;&#9;&#9;M108.291,56.481c0,1.312-1.062,2.375-2.376,2.375H67.871V26.759c0-1.315,1.065-2.378,2.376-2.378h10.999&#10;&#9;&#9;c0.628,0,1.234,0.251,1.68,0.697l3.362,3.362c0.446,0.443,1.049,0.696,1.68,0.696h17.948c1.313,0,2.376,1.063,2.376,2.378V56.481z" transform="matrix(1, 0, 0, 1, -2.842170943040401e-14, 0)"/><path fill="#FFFFFF" stroke="#1D1D1B" stroke-width="2" stroke-linecap="round" stroke-linejoin="round" stroke-miterlimit="10" d="&#10;&#9;&#9;M108.75,58.122c-0.366,0.9-1.254,1.492-2.246,1.492H66.996l9.074-22.279c0.362-0.904,1.255-1.496,2.247-1.496h35.932&#10;&#9;&#9;c0.805,0,1.553,0.391,2.002,1.043c0.453,0.654,0.543,1.485,0.246,2.219L108.75,58.122z" transform="matrix(1, 0, 0, 1, -2.842170943040401e-14, 0)"/><path d="M 22.903999 26.659 L 44.097 26.659" fill="#FFFFFF" stroke="#3D3437" stroke-width="2" stroke-miterlimit="10" transform="matrix(1, 0, 0, 1, -2.842170943040401e-14, 0)"/><path d="M 37.166 22.104 L 51.028999 22.104" fill="#FFFFFF" stroke="#3D3437" stroke-width="2" stroke-miterlimit="10" transform="matrix(1, 0, 0, 1, -2.842170943040401e-14, 0)"/><path d="M 222.973999 21.528 L 236.360001 21.528" fill="#FFFFFF" stroke="#3D3437" stroke-width="2" stroke-miterlimit="10" transform="matrix(1, 0, 0, 1, -2.842170943040401e-14, 0)"/><path d="M 298.526001 75.692001 L 311.912994 75.692001" fill="#FFFFFF" stroke="#3D3437" stroke-width="2" stroke-miterlimit="10" transform="matrix(1, 0, 0, 1, -2.842170943040401e-14, 0)"/><path d="M 231.983002 16.973 L 240.738998 16.973" fill="#FFFFFF" stroke="#3D3437" stroke-width="2" stroke-miterlimit="10" transform="matrix(1, 0, 0, 1, -2.842170943040401e-14, 0)"/><path d="M 245.694 137.561005 L 259.080994 137.561005" fill="#FFFFFF" stroke="#3D3437" stroke-width="2" stroke-miterlimit="10" transform="matrix(1, 0, 0, 1, -2.842170943040401e-14, 0)"/><path d="M 254.701996 133.003998 L 263.459991 133.003998" fill="#FFFFFF" stroke="#3D3437" stroke-width="2" stroke-miterlimit="10" transform="matrix(1, 0, 0, 1, -2.842170943040401e-14, 0)"/><path d="M 125.737 70.862999 L 141.046005 70.862999" fill="#FFFFFF" stroke="#3D3437" stroke-width="2" stroke-miterlimit="10" transform="matrix(1, 0, 0, 1, -2.842170943040401e-14, 0)"/><path d="M 289.908997 68.991997 L 305.217987 68.991997" fill="#FFFFFF" stroke="#3D3437" stroke-width="2" stroke-miterlimit="10" transform="matrix(1, 0, 0, 1, -2.842170943040401e-14, 0)"/><path d="M 27.896999 65.928001 L 43.206001 65.928001" fill="#FFFFFF" stroke="#3D3437" stroke-width="2" stroke-miterlimit="10" transform="matrix(1, 0, 0, 1, -2.842170943040401e-14, 0)"/><path d="M 145.899002 183.865005 L 161.207993 183.865005" fill="#FFFFFF" stroke="#3D3437" stroke-width="2" stroke-miterlimit="10" transform="matrix(1, 0, 0, 1, -2.842170943040401e-14, 0)"/><path d="M 171.585007 183.867004 L 211.057999 183.867004" fill="#FFFFFF" stroke="#3D3437" stroke-width="2" stroke-miterlimit="10" transform="matrix(1, 0, 0, 1, -2.842170943040401e-14, 0)"/><path d="M 103.318001 16.326 L 133.391998 16.326" fill="#FFFFFF" stroke="#3D3437" stroke-width="2" stroke-miterlimit="10" transform="matrix(1, 0, 0, 1, -2.842170943040401e-14, 0)"/><path d="M 195.093998 121.189003 A 26.465 26.465 0 0 1 168.628998 147.654003 A 26.465 26.465 0 0 1 142.163998 121.189003 A 26.465 26.465 0 0 1 168.628998 94.724003 A 26.465 26.465 0 0 1 195.093998 121.189003 Z" fill="none" stroke="#1D1D1B" stroke-width="2" stroke-miterlimit="10" transform="matrix(1, 0, 0, 1, -2.842170943040401e-14, 0)"/><path fill="#FFFFFF" stroke="#1D1D1B" stroke-width="2" stroke-miterlimit="10" d="M185.831,121.188&#10;&#9;&#9;c0-10.188-8.733-18.26-19.188-17.068c-7.939,0.925-14.29,7.277-15.083,15.217c-0.663,6.088,1.851,11.512,6.087,14.953&#10;&#9;&#9;c1.851,1.586,3.042,3.838,3.042,6.352v0.396h15.879v-0.133c0-2.381,1.059-4.764,2.912-6.352&#10;&#9;&#9;C183.317,131.379,185.831,126.615,185.831,121.188z" transform="matrix(1, 0, 0, 1, -2.842170943040401e-14, 0)"/><path d="M 173.159998 150.860992 A 4.531 4.531 0 0 1 168.628998 155.391993 A 4.531 4.531 0 0 1 164.097998 150.860992 A 4.531 4.531 0 0 1 168.628998 146.329992 A 4.531 4.531 0 0 1 173.159998 150.860992 Z" fill="#FFFFFF" stroke="#1D1D1B" stroke-width="2" stroke-miterlimit="10" transform="matrix(1, 0, 0, 1, -2.842170943040401e-14, 0)"/><path fill="#FFFFFF" stroke="#1D1D1B" stroke-width="2" stroke-miterlimit="10" d="M160.688,139.715v3.572v2.645v0.398&#10;&#9;&#9;c0,2.912,2.383,5.293,5.293,5.293h5.295c1.889,0,3.542-1.012,4.479-2.512l0.02-0.002c0.339-0.508,0.557-1.076,0.678-1.693&#10;&#9;&#9;c0.004-0.016,0.007-0.029,0.01-0.045c0.062-0.334,0.105-0.676,0.105-1.041v-2.646v-2.646v-1.322H160.688z" transform="matrix(1, 0, 0, 1, -2.842170943040401e-14, 0)"/><path d="M 305.903015 22.93 L 305.903015 26.249001" fill="#FFFFFF" stroke="#0E3C54" stroke-width="2" stroke-miterlimit="10" transform="matrix(1, 0, 0, 1, -5.684341886080802e-14, 0)"/><path d="M 300.967987 27.576 L 304.286011 27.576" fill="#FFFFFF" stroke="#0E3C54" stroke-width="2" stroke-miterlimit="10" transform="matrix(1, 0, 0, 1, -5.684341886080802e-14, 0)"/><path d="M 305.903015 32.382 L 305.903015 29.063" fill="#FFFFFF" stroke="#0E3C54" stroke-width="2" stroke-miterlimit="10" transform="matrix(1, 0, 0, 1, -5.684341886080802e-14, 0)"/><path d="M 310.841003 27.735001 L 307.522003 27.735001" fill="#FFFFFF" stroke="#0E3C54" stroke-width="2" stroke-miterlimit="10" transform="matrix(1, 0, 0, 1, -5.684341886080802e-14, 0)"/><path d="M 29.997 42.443001 L 29.997 45.763" fill="#FFFFFF" stroke="#0E3C54" stroke-width="2" stroke-miterlimit="10" transform="matrix(1, 0, 0, 1, -5.684341886080802e-14, 0)"/><path d="M 25.059999 47.09 L 28.379 47.09" fill="#FFFFFF" stroke="#0E3C54" stroke-width="2" stroke-miterlimit="10" transform="matrix(1, 0, 0, 1, -5.684341886080802e-14, 0)"/><path d="M 29.997 51.896 L 29.997 48.577" fill="#FFFFFF" stroke="#0E3C54" stroke-width="2" stroke-miterlimit="10" transform="matrix(1, 0, 0, 1, -5.684341886080802e-14, 0)"/><path d="M 34.933998 47.249001 L 31.614 47.249001" fill="#FFFFFF" stroke="#0E3C54" stroke-width="2" stroke-miterlimit="10" transform="matrix(1, 0, 0, 1, -5.684341886080802e-14, 0)"/><path d="M 126.698997 97.176003 L 126.698997 100.495003" fill="#FFFFFF" stroke="#0E3C54" stroke-width="2" stroke-miterlimit="10" transform="matrix(1, 0, 0, 1, -5.684341886080802e-14, 0)"/><path d="M 121.762001 101.821999 L 125.082001 101.821999" fill="#FFFFFF" stroke="#0E3C54" stroke-width="2" stroke-miterlimit="10" transform="matrix(1, 0, 0, 1, -5.684341886080802e-14, 0)"/><path d="M 126.698997 106.627998 L 126.698997 103.309998" fill="#FFFFFF" stroke="#0E3C54" stroke-width="2" stroke-miterlimit="10" transform="matrix(1, 0, 0, 1, -5.684341886080802e-14, 0)"/><path d="M 131.636002 101.981003 L 128.317001 101.981003" fill="#FFFFFF" stroke="#0E3C54" stroke-width="2" stroke-miterlimit="10" transform="matrix(1, 0, 0, 1, -5.684341886080802e-14, 0)"/><path d="M 213.822998 136.755997 L 213.822998 140.076004" fill="#FFFFFF" stroke="#0E3C54" stroke-width="2" stroke-miterlimit="10" transform="matrix(1, 0, 0, 1, -5.684341886080802e-14, 0)"/><path d="M 208.886002 141.401993 L 212.205994 141.401993" fill="#FFFFFF" stroke="#0E3C54" stroke-width="2" stroke-miterlimit="10" transform="matrix(1, 0, 0, 1, -5.684341886080802e-14, 0)"/><path d="M 213.822998 146.209 L 213.822998 142.891006" fill="#FFFFFF" stroke="#0E3C54" stroke-width="2" stroke-miterlimit="10" transform="matrix(1, 0, 0, 1, -5.684341886080802e-14, 0)"/><path d="M 218.761002 141.561996 L 215.440002 141.561996" fill="#FFFFFF" stroke="#0E3C54" stroke-width="2" stroke-miterlimit="10" transform="matrix(1, 0, 0, 1, -5.684341886080802e-14, 0)"/><path fill="#FFFFFF" stroke="#1D1D1B" stroke-width="2" stroke-linecap="round" stroke-linejoin="round" stroke-miterlimit="10" d="&#10;&#9;&#9;M290.284,33.954l-3.029,0.524c-0.703,0.121-1.535-0.301-1.85-0.938l-2.482-3.934c-0.438-0.557-0.465-1.49-0.057-2.069l1.771-2.508&#10;&#9;&#9;c0.406-0.586,0.266-1.39-0.312-1.802l-2.887-2.035c-0.584-0.412-1.398-0.27-1.805,0.312l-1.77,2.51&#10;&#9;&#9;c-0.408,0.579-1.291,0.874-1.965,0.64l-4.541-1.008c-0.705-0.083-1.383-0.729-1.504-1.428l-0.525-3.035&#10;&#9;&#9;c-0.121-0.701-0.795-1.17-1.492-1.049l-3.479,0.603c-0.705,0.121-1.176,0.789-1.055,1.49l0.525,3.034&#10;&#9;&#9;c0.121,0.699-0.303,1.535-0.941,1.852l-3.934,2.476c-0.553,0.446-1.488,0.467-2.066,0.06l-2.514-1.769&#10;&#9;&#9;c-0.58-0.412-1.387-0.272-1.797,0.312l-2.037,2.887c-0.406,0.584-0.268,1.387,0.312,1.802l2.514,1.766&#10;&#9;&#9;c0.578,0.41,0.861,1.298,0.631,1.971l-1.008,4.539c-0.082,0.706-0.723,1.384-1.428,1.505l-3.029,0.524&#10;&#9;&#9;c-0.697,0.121-1.168,0.799-1.047,1.501l0.602,3.474c0.121,0.7,0.793,1.18,1.49,1.059l3.029-0.525&#10;&#9;&#9;c0.705-0.122,1.535,0.295,1.85,0.936l2.477,3.936c0.447,0.555,0.475,1.485,0.066,2.062l-1.773,2.513&#10;&#9;&#9;c-0.406,0.578-0.266,1.391,0.312,1.805l2.891,2.035c0.582,0.407,1.389,0.268,1.797-0.311l1.771-2.515&#10;&#9;&#9;c0.408-0.579,1.295-0.873,1.971-0.639l4.533,1.011c0.707,0.081,1.389,0.721,1.51,1.423l0.525,3.033&#10;&#9;&#9;c0.119,0.697,0.789,1.175,1.494,1.052l3.479-0.602c0.697-0.121,1.174-0.797,1.053-1.494l-0.525-3.032&#10;&#9;&#9;c-0.121-0.702,0.299-1.534,0.936-1.847l3.938-2.479c0.551-0.446,1.486-0.468,2.064-0.061l2.514,1.773&#10;&#9;&#9;c0.578,0.41,1.393,0.268,1.803-0.312l2.035-2.889c0.406-0.585,0.266-1.397-0.312-1.804l-2.518-1.771&#10;&#9;&#9;c-0.578-0.406-0.861-1.295-0.637-1.963l1.014-4.54c0.082-0.709,0.725-1.382,1.428-1.503l3.029-0.524&#10;&#9;&#9;c0.697-0.121,1.174-0.798,1.053-1.499l-0.602-3.473C291.657,34.312,290.981,33.833,290.284,33.954z M270.88,46.077&#10;&#9;&#9;c-3.035,0.525-5.914-1.512-6.439-4.545s1.502-5.916,4.537-6.441c3.039-0.526,5.922,1.506,6.447,4.539&#10;&#9;&#9;C275.95,42.664,273.919,45.552,270.88,46.077z" transform="matrix(1, 0, 0, 1, -2.842170943040401e-14, 0)"/><path fill="#FFFFFF" stroke="#1D1D1B" stroke-width="2" stroke-linecap="round" stroke-linejoin="round" stroke-miterlimit="10" d="&#10;&#9;&#9;M24.145,125.994V91.068c0-2.744,2.245-4.99,4.99-4.99h19.963c2.745,0,4.99,2.246,4.99,4.99v34.926c0,2.744-2.245,4.99-4.99,4.99&#10;&#9;&#9;H29.135C26.39,130.984,24.145,128.738,24.145,125.994z" transform="matrix(1, 0, 0, 1, -2.842170943040401e-14, 0)"/><path fill="#FFFFFF" stroke="#1D1D1B" stroke-width="2" stroke-linecap="round" stroke-linejoin="round" stroke-miterlimit="10" d="&#10;&#9;&#9;M49.098,89.821H29.135c-0.749,0-1.247,0.5-1.247,1.247v31.184c0,0.746,0.499,1.246,1.247,1.246h19.963&#10;&#9;&#9;c0.749,0,1.247-0.5,1.247-1.246V91.068C50.344,90.321,49.846,89.821,49.098,89.821z" transform="matrix(1, 0, 0, 1, -2.842170943040401e-14, 0)"/><path d="M 40.987001 127.241997 A 1.871 1.871 0 0 1 39.116001 129.112997 A 1.871 1.871 0 0 1 37.245001 127.241997 A 1.871 1.871 0 0 1 39.116001 125.370997 A 1.871 1.871 0 0 1 40.987001 127.241997 Z" fill="#FFFFFF" stroke="#1D1D1B" stroke-width="2" stroke-linecap="round" stroke-linejoin="round" stroke-miterlimit="10" transform="matrix(1, 0, 0, 1, -2.842170943040401e-14, 0)"/><path fill="#FFFFFF" stroke="#1D1D1B" stroke-width="2" stroke-miterlimit="10" d="M184.204,58.585&#10;&#9;&#9;c0,1.275-1.035,2.311-2.311,2.311h-38.235c-1.275,0-2.311-1.035-2.311-2.311V33.876c0-1.275,1.035-2.311,2.311-2.311h38.235&#10;&#9;&#9;c1.275,0,2.311,1.035,2.311,2.311V58.585z" transform="matrix(1, 0, 0, 1, -2.842170943040401e-14, 0)"/><path d="M 149.315 37.004002 A 1.996 1.996 0 0 1 147.319 39.000002 A 1.996 1.996 0 0 1 145.323 37.004002 A 1.996 1.996 0 0 1 147.319 35.008002 A 1.996 1.996 0 0 1 149.315 37.004002 Z" fill="#FFFFFF" stroke="#1D1D1B" stroke-width="2" stroke-miterlimit="10" transform="matrix(1, 0, 0, 1, -2.842170943040401e-14, 0)"/><path fill="#FFFFFF" stroke="#1D1D1B" stroke-width="2" stroke-miterlimit="10" d="M171.997,30.938&#10;&#9;&#9;c0,0.347-0.349,0.627-0.779,0.627h-16.884c-0.431,0-0.78-0.28-0.78-0.627v-5.491c0-0.347,0.349-0.627,0.78-0.627h16.884&#10;&#9;&#9;c0.431,0,0.779,0.28,0.779,0.627V30.938z" transform="matrix(1, 0, 0, 1, -2.842170943040401e-14, 0)"/><path fill="#FFFFFF" stroke="#1D1D1B" stroke-width="2" stroke-miterlimit="10" d="M180.924,31.093&#10;&#9;&#9;c0,0.153-0.169,0.276-0.378,0.276h-8.171c-0.208,0-0.378-0.123-0.378-0.276v-2.427c0-0.154,0.17-0.276,0.378-0.276h8.171&#10;&#9;&#9;c0.209,0,0.378,0.122,0.378,0.276V31.093z" transform="matrix(1, 0, 0, 1, -2.842170943040401e-14, 0)"/><path d="M 174.049994 46.23 A 11.275 11.275 0 0 1 162.774994 57.504999 A 11.275 11.275 0 0 1 151.499994 46.23 A 11.275 11.275 0 0 1 162.774994 34.955 A 11.275 11.275 0 0 1 174.049994 46.23 Z" fill="#FFFFFF" stroke="#1D1D1B" stroke-width="2" stroke-miterlimit="10" transform="matrix(1, 0, 0, 1, -2.842170943040401e-14, 0)"/><path fill="#FFFFFF" stroke="#1D1D1B" stroke-width="2" stroke-linecap="round" stroke-linejoin="round" stroke-miterlimit="10" d="&#10;&#9;&#9;&#9;M316.167,101.902h-32.668v24.502c0,2.244,1.84,4.082,4.084,4.082h24.5c2.246,0,4.084-1.838,4.084-4.082V101.902z" transform="matrix(1, 0, 0, 1, -5.684341886080802e-14, 0)"/><path fill="#FFFFFF" stroke="#1D1D1B" stroke-width="2" stroke-linecap="round" stroke-linejoin="round" stroke-miterlimit="10" d="&#10;&#9;&#9;&#9;M312.083,89.653h-24.5c-2.244,0-4.084,1.837-4.084,4.082v9.189h32.668v-9.189C316.167,91.49,314.329,89.653,312.083,89.653z" transform="matrix(1, 0, 0, 1, -5.684341886080802e-14, 0)"/><path fill="#FFFFFF" stroke="#1D1D1B" stroke-width="2" stroke-linecap="round" stroke-linejoin="round" stroke-miterlimit="10" d="&#10;&#9;&#9;&#9;M312.083,99.861h-24.5c-0.611,0-1.02-0.408-1.02-1.021v-5.105c0-0.611,0.408-1.021,1.02-1.021h24.5&#10;&#9;&#9;&#9;c0.613,0,1.021,0.409,1.021,1.021v5.105C313.104,99.453,312.696,99.861,312.083,99.861z" transform="matrix(1, 0, 0, 1, -5.684341886080802e-14, 0)"/><path fill="#FFFFFF" stroke="#1D1D1B" stroke-width="2" stroke-linecap="round" stroke-linejoin="round" stroke-miterlimit="10" d="&#10;&#9;&#9;&#9;&#9;M292.089,111.404h-4.145c-0.828,0-1.381-0.523-1.381-1.306v-2.61c0-0.782,0.553-1.308,1.381-1.308h4.145&#10;&#9;&#9;&#9;&#9;c0.828,0,1.383,0.525,1.383,1.308v2.61C293.472,110.881,292.917,111.404,292.089,111.404z" transform="matrix(1, 0, 0, 1, -8.526512829121202e-14, 0)"/><path fill="#FFFFFF" stroke="#1D1D1B" stroke-width="2" stroke-linecap="round" stroke-linejoin="round" stroke-miterlimit="10" d="&#10;&#9;&#9;&#9;&#9;M301.759,111.404h-4.143c-0.83,0-1.383-0.523-1.383-1.306v-2.61c0-0.782,0.553-1.308,1.383-1.308h4.143&#10;&#9;&#9;&#9;&#9;c0.83,0,1.383,0.525,1.383,1.308v2.61C303.142,110.881,302.589,111.404,301.759,111.404z" transform="matrix(1, 0, 0, 1, -8.526512829121202e-14, 0)"/><path fill="#FFFFFF" stroke="#1D1D1B" stroke-width="2" stroke-linecap="round" stroke-linejoin="round" stroke-miterlimit="10" d="&#10;&#9;&#9;&#9;&#9;M311.431,111.404h-4.146c-0.826,0-1.381-0.523-1.381-1.306v-2.61c0-0.782,0.555-1.308,1.381-1.308h4.146&#10;&#9;&#9;&#9;&#9;c0.83,0,1.381,0.525,1.381,1.308v2.61C312.812,110.881,312.261,111.404,311.431,111.404z" transform="matrix(1, 0, 0, 1, -8.526512829121202e-14, 0)"/><path fill="#FFFFFF" stroke="#1D1D1B" stroke-width="2" stroke-linecap="round" stroke-linejoin="round" stroke-miterlimit="10" d="&#10;&#9;&#9;&#9;&#9;M292.089,119.238h-4.145c-0.828,0-1.381-0.524-1.381-1.307v-2.611c0-0.783,0.553-1.305,1.381-1.305h4.145&#10;&#9;&#9;&#9;&#9;c0.828,0,1.383,0.521,1.383,1.305v2.611C293.472,118.714,292.917,119.238,292.089,119.238z" transform="matrix(1, 0, 0, 1, -8.526512829121202e-14, 0)"/><path fill="#FFFFFF" stroke="#1D1D1B" stroke-width="2" stroke-linecap="round" stroke-linejoin="round" stroke-miterlimit="10" d="&#10;&#9;&#9;&#9;&#9;M301.759,119.238h-4.143c-0.83,0-1.383-0.524-1.383-1.307v-2.611c0-0.783,0.553-1.305,1.383-1.305h4.143&#10;&#9;&#9;&#9;&#9;c0.83,0,1.383,0.521,1.383,1.305v2.611C303.142,118.714,302.589,119.238,301.759,119.238z" transform="matrix(1, 0, 0, 1, -8.526512829121202e-14, 0)"/><path fill="#FFFFFF" stroke="#1D1D1B" stroke-width="2" stroke-linecap="round" stroke-linejoin="round" stroke-miterlimit="10" d="&#10;&#9;&#9;&#9;&#9;M311.431,119.238h-4.146c-0.826,0-1.381-0.524-1.381-1.307v-2.611c0-0.783,0.555-1.305,1.381-1.305h4.146&#10;&#9;&#9;&#9;&#9;c0.83,0,1.381,0.521,1.381,1.305v2.611C312.812,118.714,312.261,119.238,311.431,119.238z" transform="matrix(1, 0, 0, 1, -8.526512829121202e-14, 0)"/><path fill="#FFFFFF" stroke="#1D1D1B" stroke-width="2" stroke-linecap="round" stroke-linejoin="round" stroke-miterlimit="10" d="&#10;&#9;&#9;&#9;&#9;M292.089,127.07h-4.145c-0.828,0-1.381-0.521-1.381-1.307v-2.609c0-0.783,0.553-1.307,1.381-1.307h4.145&#10;&#9;&#9;&#9;&#9;c0.828,0,1.383,0.523,1.383,1.307v2.609C293.472,126.549,292.917,127.07,292.089,127.07z" transform="matrix(1, 0, 0, 1, -8.526512829121202e-14, 0)"/><path fill="#FFFFFF" stroke="#1D1D1B" stroke-width="2" stroke-linecap="round" stroke-linejoin="round" stroke-miterlimit="10" d="&#10;&#9;&#9;&#9;&#9;M301.759,127.07h-4.143c-0.83,0-1.383-0.521-1.383-1.307v-2.609c0-0.783,0.553-1.307,1.383-1.307h4.143&#10;&#9;&#9;&#9;&#9;c0.83,0,1.383,0.523,1.383,1.307v2.609C303.142,126.549,302.589,127.07,301.759,127.07z" transform="matrix(1, 0, 0, 1, -8.526512829121202e-14, 0)"/><path fill="#FFFFFF" stroke="#1D1D1B" stroke-width="2" stroke-linecap="round" stroke-linejoin="round" stroke-miterlimit="10" d="&#10;&#9;&#9;&#9;&#9;M311.431,127.07h-4.146c-0.826,0-1.381-0.521-1.381-1.307v-2.609c0-0.783,0.555-1.307,1.381-1.307h4.146&#10;&#9;&#9;&#9;&#9;c0.83,0,1.381,0.523,1.381,1.307v2.609C312.812,126.549,312.261,127.07,311.431,127.07z" transform="matrix(1, 0, 0, 1, -8.526512829121202e-14, 0)"/><g transform="matrix(1, 0, 0, 1, -5.684341886080802e-14, 0)">
			<g>
				
					<path d="M 22.836 169.520004 H 55.652002 V 206.540005 H 22.836 V 169.520004 Z" fill="#FFFFFF" stroke="#1D1D1B" stroke-width="2" stroke-linecap="round" stroke-linejoin="round" stroke-miterlimit="10"/>
				
					<path fill="#FFFFFF" stroke="#1D1D1B" stroke-width="2" stroke-linecap="round" stroke-linejoin="round" stroke-miterlimit="10" d="&#10;&#9;&#9;&#9;&#9;&#9;M55.872,206.777H22.616v-37.498h33.256V206.777z M23.056,206.299h32.376v-36.541H23.056V206.299z"/>
			</g>
			<g>
				
					<path d="M 22.836 169.520004 H 55.652002 V 177.176004 H 22.836 V 169.520004 Z" fill="#FFFFFF" stroke="#1D1D1B" stroke-width="2" stroke-linecap="round" stroke-linejoin="round" stroke-miterlimit="10"/>
				
					<path fill="#FFFFFF" stroke="#1D1D1B" stroke-width="2" stroke-linecap="round" stroke-linejoin="round" stroke-miterlimit="10" d="&#10;&#9;&#9;&#9;&#9;&#9;M55.872,177.416H22.616v-8.137h33.256V177.416z M23.056,176.939h32.376v-7.182H23.056V176.939z"/>
			</g>
		</g><path d="M 27.778 186.981995 H 50.709999 V 193.356995 H 27.778 V 186.981995 Z" fill="#FFFFFF" stroke="#1D1D1B" stroke-width="2" stroke-linecap="round" stroke-linejoin="round" stroke-miterlimit="10" transform="matrix(1, 0, 0, 1, -8.526512829121202e-14, 0)"/><path d="M 27.778 173.348007 L 42.244999 173.348007" fill="#FFFFFF" stroke="#1D1D1B" stroke-width="2" stroke-linecap="round" stroke-linejoin="round" stroke-miterlimit="10" transform="matrix(1, 0, 0, 1, -5.684341886080802e-14, 0)"/><path d="M 47.512001 173.348007 L 50.709999 173.348007" fill="#FFFFFF" stroke="#1D1D1B" stroke-width="2" stroke-linecap="round" stroke-linejoin="round" stroke-miterlimit="10" transform="matrix(1, 0, 0, 1, -5.684341886080802e-14, 0)"/><path d="M 27.778 198.253998 L 50.499001 198.253998" fill="#FFFFFF" stroke="#1D1D1B" stroke-width="2" stroke-linecap="round" stroke-linejoin="round" stroke-miterlimit="10" transform="matrix(1, 0, 0, 1, -5.684341886080802e-14, 0)"/><g transform="matrix(1, 0, 0, 1, -5.684341886080802e-14, 0)">
			
				<path d="M 281.502991 169.520004 H 314.318993 V 206.540005 H 281.502991 V 169.520004 Z" fill="#FFFFFF" stroke="#1D1D1B" stroke-width="2" stroke-linecap="round" stroke-linejoin="round" stroke-miterlimit="10"/>
			
				<path fill="#FFFFFF" stroke="#1D1D1B" stroke-width="2" stroke-linecap="round" stroke-linejoin="round" stroke-miterlimit="10" d="&#10;&#9;&#9;&#9;&#9;M314.538,206.777h-33.256v-37.498h33.256V206.777z M281.722,206.299h32.377v-36.541h-32.377V206.299z"/>
		</g><path d="M 281.502991 169.520004 H 314.318993 V 177.176004 H 281.502991 V 169.520004 Z" fill="#FFFFFF" stroke="#1D1D1B" stroke-width="2" stroke-linecap="round" stroke-linejoin="round" stroke-miterlimit="10" transform="matrix(1, 0, 0, 1, -8.526512829121202e-14, 0)"/><path fill="#FFFFFF" stroke="#1D1D1B" stroke-width="2" stroke-linecap="round" stroke-linejoin="round" stroke-miterlimit="10" d="&#10;&#9;&#9;&#9;&#9;M314.538,177.416h-33.256v-8.137h33.256V177.416z M281.722,176.939h32.377v-7.182h-32.377V176.939z" transform="matrix(1, 0, 0, 1, -8.526512829121202e-14, 0)"/><path d="M 286.444 173.348007 L 300.911011 173.348007" fill="#FFFFFF" stroke="#1D1D1B" stroke-width="2" stroke-linecap="round" stroke-linejoin="round" stroke-miterlimit="10" transform="matrix(1, 0, 0, 1, -2.842170943040401e-14, 0)"/><path d="M 286.444 196.143005 L 300.911011 196.143005" fill="#FFFFFF" stroke="#1D1D1B" stroke-width="2" stroke-linecap="round" stroke-linejoin="round" stroke-miterlimit="10" transform="matrix(1, 0, 0, 1, -2.842170943040401e-14, 0)"/><path d="M 286.444 200.658005 L 309.358002 200.658005" fill="#FFFFFF" stroke="#1D1D1B" stroke-width="2" stroke-linecap="round" stroke-linejoin="round" stroke-miterlimit="10" transform="matrix(1, 0, 0, 1, -2.842170943040401e-14, 0)"/><path d="M 306.178986 173.348007 L 309.376007 173.348007" fill="#FFFFFF" stroke="#1D1D1B" stroke-width="2" stroke-linecap="round" stroke-linejoin="round" stroke-miterlimit="10" transform="matrix(1, 0, 0, 1, -2.842170943040401e-14, 0)"/><path d="M 286.212006 181.608994 H 295.872005 V 191.268993 H 286.212006 V 181.608994 Z" fill="#FFFFFF" stroke="#1D1D1B" stroke-width="2" stroke-linecap="round" stroke-linejoin="round" stroke-miterlimit="10" transform="matrix(1, 0, 0, 1, -2.842170943040401e-14, 0)"/><path d="M 300.006989 181.608994 H 309.666988 V 191.268993 H 300.006989 V 181.608994 Z" fill="#FFFFFF" stroke="#1D1D1B" stroke-width="2" stroke-linecap="round" stroke-linejoin="round" stroke-miterlimit="10" transform="matrix(1, 0, 0, 1, -2.842170943040401e-14, 0)"/><path d="M 166.218994 138.733994 L 166.218994 123.185997 L 161.604004 117.750999 L 175.591003 117.750999 L 170.996994 123.157997 L 170.996994 138.733994" fill="#FFFFFF" stroke="#1D1D1B" stroke-width="2" stroke-linejoin="round" stroke-miterlimit="10" transform="matrix(1, 0, 0, 1, -2.842170943040401e-14, 0)"/>

<g id="Layer_1">
</g>

<g id="Layer_4">
</g>

<g id="Layer_6">
</g>

</svg>